<?xml version="1.0" encoding="UTF-8" standalone="no"?>
<!DOCTYPE svg PUBLIC "-//W3C//DTD SVG 1.1//EN"
 "http://www.w3.org/Graphics/SVG/1.1/DTD/svg11.dtd">
<!-- Generated by graphviz version 2.40.1 (20161225.0304)
 -->
<!-- Title: dependencies Pages: 1 -->
<svg width="1569pt" height="284pt"
 viewBox="0.00 0.00 1569.00 284.00" xmlns="http://www.w3.org/2000/svg" xmlns:xlink="http://www.w3.org/1999/xlink">
<g id="graph0" class="graph" transform="scale(1 1) rotate(0) translate(4 280)">
<title>dependencies</title>
<polygon fill="#ffffff" stroke="transparent" points="-4,4 -4,-280 1565,-280 1565,4 -4,4"/>
<text text-anchor="start" x="759.5091" y="-42.4" font-family="sans-serif" font-weight="bold" font-size="14.00" fill="#000000">Legend</text>
<polygon fill="#ffffb3" stroke="transparent" points="546.5,-10 546.5,-30 566.5,-30 566.5,-10 546.5,-10"/>
<text text-anchor="start" x="570.129" y="-15.4" font-family="sans-serif" font-size="14.00" fill="#000000"> &#160;Declarations</text>
<polygon fill="#8dd3c7" stroke="transparent" points="659.5,-10 659.5,-30 679.5,-30 679.5,-10 659.5,-10"/>
<text text-anchor="start" x="683.2251" y="-15.4" font-family="sans-serif" font-size="14.00" fill="#000000"> &#160;Module</text>
<polygon fill="#80b1d3" stroke="transparent" points="745.5,-10 745.5,-30 765.5,-30 765.5,-10 745.5,-10"/>
<text text-anchor="start" x="769.2812" y="-15.4" font-family="sans-serif" font-size="14.00" fill="#000000"> &#160;Bootstrap</text>
<polygon fill="#fdb462" stroke="transparent" points="842.5,-10 842.5,-30 862.5,-30 862.5,-10 842.5,-10"/>
<text text-anchor="start" x="866.1732" y="-15.4" font-family="sans-serif" font-size="14.00" fill="#000000"> &#160;Providers</text>
<polygon fill="#fb8072" stroke="transparent" points="938.5,-10 938.5,-30 958.5,-30 958.5,-10 938.5,-10"/>
<text text-anchor="start" x="962.2258" y="-15.4" font-family="sans-serif" font-size="14.00" fill="#000000"> &#160;Exports</text>
<g id="clust1" class="cluster">
<title>cluster_UiKitFormBuilderModule</title>
<polygon fill="none" stroke="#000000" stroke-dasharray="1,5" points="8,-70 8,-268 1553,-268 1553,-70 8,-70"/>
</g>
<g id="clust2" class="cluster">
<title>cluster_UiKitFormBuilderModule_declarations</title>
<polygon fill="none" stroke="#000000" points="37,-78 37,-130 1531,-130 1531,-78 37,-78"/>
</g>
<g id="clust14" class="cluster">
<title>cluster_UiKitFormBuilderModule_exports</title>
<polygon fill="none" stroke="#000000" points="16,-208 16,-260 1545,-260 1545,-208 16,-208"/>
</g>
<!-- AsyncSelectComponent -->
<g id="node1" class="node">
<title>AsyncSelectComponent</title>
<polygon fill="#ffffb3" stroke="#000000" points="1522.8061,-122 1371.1939,-122 1371.1939,-86 1522.8061,-86 1522.8061,-122"/>
<text text-anchor="middle" x="1447" y="-99.8" font-family="Times,serif" font-size="14.00" fill="#000000">AsyncSelectComponent</text>
</g>
<!-- UiKitFormBuilderModule -->
<g id="node11" class="node">
<title>UiKitFormBuilderModule</title>
<polygon fill="#8dd3c7" stroke="#000000" points="790.7618,-187 787.7618,-191 766.7618,-191 763.7618,-187 627.2382,-187 627.2382,-151 790.7618,-151 790.7618,-187"/>
<text text-anchor="middle" x="709" y="-164.8" font-family="Times,serif" font-size="14.00" fill="#000000">UiKitFormBuilderModule</text>
</g>
<!-- AsyncSelectComponent&#45;&gt;UiKitFormBuilderModule -->
<g id="edge1" class="edge">
<title>AsyncSelectComponent&#45;&gt;UiKitFormBuilderModule</title>
<path fill="none" stroke="#000000" d="M1376.9721,-122.2222C1376.9721,-140.8285 1376.9721,-167 1376.9721,-167 1376.9721,-167 800.9065,-167 800.9065,-167"/>
<polygon fill="#000000" stroke="#000000" points="800.9065,-163.5001 790.9065,-167 800.9065,-170.5001 800.9065,-163.5001"/>
</g>
<!-- ButtonComponent -->
<g id="node2" class="node">
<title>ButtonComponent</title>
<polygon fill="#ffffb3" stroke="#000000" points="1353.9511,-122 1234.0489,-122 1234.0489,-86 1353.9511,-86 1353.9511,-122"/>
<text text-anchor="middle" x="1294" y="-99.8" font-family="Times,serif" font-size="14.00" fill="#000000">ButtonComponent</text>
</g>
<!-- ButtonComponent&#45;&gt;UiKitFormBuilderModule -->
<g id="edge2" class="edge">
<title>ButtonComponent&#45;&gt;UiKitFormBuilderModule</title>
<path fill="none" stroke="#000000" d="M1237.8999,-122.0225C1237.8999,-139.3734 1237.8999,-163 1237.8999,-163 1237.8999,-163 800.7707,-163 800.7707,-163"/>
<polygon fill="#000000" stroke="#000000" points="800.7707,-159.5001 790.7707,-163 800.7707,-166.5001 800.7707,-159.5001"/>
</g>
<!-- CheckboxComponent -->
<g id="node3" class="node">
<title>CheckboxComponent</title>
<polygon fill="#ffffb3" stroke="#000000" points="1216.0982,-122 1077.9018,-122 1077.9018,-86 1216.0982,-86 1216.0982,-122"/>
<text text-anchor="middle" x="1147" y="-99.8" font-family="Times,serif" font-size="14.00" fill="#000000">CheckboxComponent</text>
</g>
<!-- CheckboxComponent&#45;&gt;UiKitFormBuilderModule -->
<g id="edge3" class="edge">
<title>CheckboxComponent&#45;&gt;UiKitFormBuilderModule</title>
<path fill="none" stroke="#000000" d="M1171.433,-122.0091C1171.433,-138.0494 1171.433,-159 1171.433,-159 1171.433,-159 800.8749,-159 800.8749,-159"/>
<polygon fill="#000000" stroke="#000000" points="800.875,-155.5001 790.8749,-159 800.8749,-162.5001 800.875,-155.5001"/>
</g>
<!-- DateComponent -->
<g id="node4" class="node">
<title>DateComponent</title>
<polygon fill="#ffffb3" stroke="#000000" points="1059.7591,-122 952.2409,-122 952.2409,-86 1059.7591,-86 1059.7591,-122"/>
<text text-anchor="middle" x="1006" y="-99.8" font-family="Times,serif" font-size="14.00" fill="#000000">DateComponent</text>
</g>
<!-- DateComponent&#45;&gt;UiKitFormBuilderModule -->
<g id="edge4" class="edge">
<title>DateComponent&#45;&gt;UiKitFormBuilderModule</title>
<path fill="none" stroke="#000000" d="M1024.3765,-122.1243C1024.3765,-136.7832 1024.3765,-155 1024.3765,-155 1024.3765,-155 801.0382,-155 801.0382,-155"/>
<polygon fill="#000000" stroke="#000000" points="801.0382,-151.5001 791.0382,-155 801.0381,-158.5001 801.0382,-151.5001"/>
</g>
<!-- FieldBuilderDirective -->
<g id="node5" class="node">
<title>FieldBuilderDirective</title>
<polygon fill="#ffffb3" stroke="#000000" points="934.3543,-122 795.6457,-122 795.6457,-86 934.3543,-86 934.3543,-122"/>
<text text-anchor="middle" x="865" y="-99.8" font-family="Times,serif" font-size="14.00" fill="#000000">FieldBuilderDirective</text>
</g>
<!-- FieldBuilderDirective&#45;&gt;UiKitFormBuilderModule -->
<g id="edge5" class="edge">
<title>FieldBuilderDirective&#45;&gt;UiKitFormBuilderModule</title>
<path fill="none" stroke="#000000" d="M795.5685,-104C788.7852,-104 784.3552,-104 784.3552,-104 784.3552,-104 784.3552,-140.8939 784.3552,-140.8939"/>
<polygon fill="#000000" stroke="#000000" points="780.8553,-140.8938 784.3552,-150.8939 787.8553,-140.8939 780.8553,-140.8938"/>
</g>
<!-- FormBuilderComponent -->
<g id="node6" class="node">
<title>FormBuilderComponent</title>
<polygon fill="#ffffb3" stroke="#000000" points="777.6596,-122 624.3404,-122 624.3404,-86 777.6596,-86 777.6596,-122"/>
<text text-anchor="middle" x="701" y="-99.8" font-family="Times,serif" font-size="14.00" fill="#000000">FormBuilderComponent</text>
</g>
<!-- FormBuilderComponent&#45;&gt;UiKitFormBuilderModule -->
<g id="edge6" class="edge">
<title>FormBuilderComponent&#45;&gt;UiKitFormBuilderModule</title>
<path fill="none" stroke="#000000" d="M702.4744,-122.1061C702.4744,-122.1061 702.4744,-140.991 702.4744,-140.991"/>
<polygon fill="#000000" stroke="#000000" points="698.9745,-140.9909 702.4744,-150.991 705.9745,-140.991 698.9745,-140.9909"/>
</g>
<!-- InputComponent -->
<g id="node7" class="node">
<title>InputComponent</title>
<polygon fill="#ffffb3" stroke="#000000" points="606.3837,-122 495.6163,-122 495.6163,-86 606.3837,-86 606.3837,-122"/>
<text text-anchor="middle" x="551" y="-99.8" font-family="Times,serif" font-size="14.00" fill="#000000">InputComponent</text>
</g>
<!-- InputComponent&#45;&gt;UiKitFormBuilderModule -->
<g id="edge7" class="edge">
<title>InputComponent&#45;&gt;UiKitFormBuilderModule</title>
<path fill="none" stroke="#000000" d="M602.8168,-122.1243C602.8168,-136.7832 602.8168,-155 602.8168,-155 602.8168,-155 617.1774,-155 617.1774,-155"/>
<polygon fill="#000000" stroke="#000000" points="617.1774,-158.5001 627.1774,-155 617.1773,-151.5001 617.1774,-158.5001"/>
</g>
<!-- RadiobuttonComponent -->
<g id="node8" class="node">
<title>RadiobuttonComponent</title>
<polygon fill="#ffffb3" stroke="#000000" points="477.0561,-122 326.9439,-122 326.9439,-86 477.0561,-86 477.0561,-122"/>
<text text-anchor="middle" x="402" y="-99.8" font-family="Times,serif" font-size="14.00" fill="#000000">RadiobuttonComponent</text>
</g>
<!-- RadiobuttonComponent&#45;&gt;UiKitFormBuilderModule -->
<g id="edge8" class="edge">
<title>RadiobuttonComponent&#45;&gt;UiKitFormBuilderModule</title>
<path fill="none" stroke="#000000" d="M472.1527,-122.0091C472.1527,-138.0494 472.1527,-159 472.1527,-159 472.1527,-159 617.1589,-159 617.1589,-159"/>
<polygon fill="#000000" stroke="#000000" points="617.159,-162.5001 627.1589,-159 617.1589,-155.5001 617.159,-162.5001"/>
</g>
<!-- SelectComponent -->
<g id="node9" class="node">
<title>SelectComponent</title>
<polygon fill="#ffffb3" stroke="#000000" points="308.5409,-122 193.4591,-122 193.4591,-86 308.5409,-86 308.5409,-122"/>
<text text-anchor="middle" x="251" y="-99.8" font-family="Times,serif" font-size="14.00" fill="#000000">SelectComponent</text>
</g>
<!-- SelectComponent&#45;&gt;UiKitFormBuilderModule -->
<g id="edge9" class="edge">
<title>SelectComponent&#45;&gt;UiKitFormBuilderModule</title>
<path fill="none" stroke="#000000" d="M301.645,-122.0225C301.645,-139.3734 301.645,-163 301.645,-163 301.645,-163 617.0557,-163 617.0557,-163"/>
<polygon fill="#000000" stroke="#000000" points="617.0557,-166.5001 627.0557,-163 617.0556,-159.5001 617.0557,-166.5001"/>
</g>
<!-- TextareaComponent -->
<g id="node10" class="node">
<title>TextareaComponent</title>
<polygon fill="#ffffb3" stroke="#000000" points="175.2949,-122 44.7051,-122 44.7051,-86 175.2949,-86 175.2949,-122"/>
<text text-anchor="middle" x="110" y="-99.8" font-family="Times,serif" font-size="14.00" fill="#000000">TextareaComponent</text>
</g>
<!-- TextareaComponent&#45;&gt;UiKitFormBuilderModule -->
<g id="edge10" class="edge">
<title>TextareaComponent&#45;&gt;UiKitFormBuilderModule</title>
<path fill="none" stroke="#000000" d="M166.5223,-122.2222C166.5223,-140.8285 166.5223,-167 166.5223,-167 166.5223,-167 617.1983,-167 617.1983,-167"/>
<polygon fill="#000000" stroke="#000000" points="617.1983,-170.5001 627.1983,-167 617.1982,-163.5001 617.1983,-170.5001"/>
</g>
<!-- AsyncSelectComponent  -->
<g id="node12" class="node">
<title>AsyncSelectComponent </title>
<polygon fill="#fb8072" stroke="#000000" points="1537.3059,-252 1382.6941,-252 1382.6941,-216 1537.3059,-216 1537.3059,-252"/>
<text text-anchor="middle" x="1460" y="-229.8" font-family="Times,serif" font-size="14.00" fill="#000000">AsyncSelectComponent </text>
</g>
<!-- UiKitFormBuilderModule&#45;&gt;AsyncSelectComponent  -->
<g id="edge11" class="edge">
<title>UiKitFormBuilderModule&#45;&gt;AsyncSelectComponent </title>
<path fill="none" stroke="#000000" stroke-dasharray="5,2" d="M791.0648,-171C984.458,-171 1452.625,-171 1452.625,-171 1452.625,-171 1452.625,-205.7778 1452.625,-205.7778"/>
<polygon fill="#000000" stroke="#000000" points="1449.1251,-205.7778 1452.625,-215.7778 1456.1251,-205.7778 1449.1251,-205.7778"/>
</g>
<!-- ButtonComponent  -->
<g id="node13" class="node">
<title>ButtonComponent </title>
<polygon fill="#fb8072" stroke="#000000" points="1364.4502,-252 1241.5498,-252 1241.5498,-216 1364.4502,-216 1364.4502,-252"/>
<text text-anchor="middle" x="1303" y="-229.8" font-family="Times,serif" font-size="14.00" fill="#000000">ButtonComponent </text>
</g>
<!-- UiKitFormBuilderModule&#45;&gt;ButtonComponent  -->
<g id="edge12" class="edge">
<title>UiKitFormBuilderModule&#45;&gt;ButtonComponent </title>
<path fill="none" stroke="#000000" stroke-dasharray="5,2" d="M790.8458,-175C952.5838,-175 1297.625,-175 1297.625,-175 1297.625,-175 1297.625,-205.9775 1297.625,-205.9775"/>
<polygon fill="#000000" stroke="#000000" points="1294.1251,-205.9774 1297.625,-215.9775 1301.1251,-205.9775 1294.1251,-205.9774"/>
</g>
<!-- CheckboxComponent  -->
<g id="node14" class="node">
<title>CheckboxComponent </title>
<polygon fill="#fb8072" stroke="#000000" points="1223.5988,-252 1082.4012,-252 1082.4012,-216 1223.5988,-216 1223.5988,-252"/>
<text text-anchor="middle" x="1153" y="-229.8" font-family="Times,serif" font-size="14.00" fill="#000000">CheckboxComponent </text>
</g>
<!-- UiKitFormBuilderModule&#45;&gt;CheckboxComponent  -->
<g id="edge13" class="edge">
<title>UiKitFormBuilderModule&#45;&gt;CheckboxComponent </title>
<path fill="none" stroke="#000000" stroke-dasharray="5,2" d="M791.0487,-179C912.7281,-179 1126.817,-179 1126.817,-179 1126.817,-179 1126.817,-205.9909 1126.817,-205.9909"/>
<polygon fill="#000000" stroke="#000000" points="1123.3171,-205.9909 1126.817,-215.9909 1130.3171,-205.991 1123.3171,-205.9909"/>
</g>
<!-- DateComponent  -->
<g id="node15" class="node">
<title>DateComponent </title>
<polygon fill="#fb8072" stroke="#000000" points="1064.7591,-252 953.2409,-252 953.2409,-216 1064.7591,-216 1064.7591,-252"/>
<text text-anchor="middle" x="1009" y="-229.8" font-family="Times,serif" font-size="14.00" fill="#000000">DateComponent </text>
</g>
<!-- UiKitFormBuilderModule&#45;&gt;DateComponent  -->
<g id="edge14" class="edge">
<title>UiKitFormBuilderModule&#45;&gt;DateComponent </title>
<path fill="none" stroke="#000000" stroke-dasharray="5,2" d="M791.0802,-183C873.6629,-183 988.8735,-183 988.8735,-183 988.8735,-183 988.8735,-205.8757 988.8735,-205.8757"/>
<polygon fill="#000000" stroke="#000000" points="985.3736,-205.8757 988.8735,-215.8757 992.3736,-205.8757 985.3736,-205.8757"/>
</g>
<!-- FieldBuilderDirective  -->
<g id="node16" class="node">
<title>FieldBuilderDirective </title>
<polygon fill="#fb8072" stroke="#000000" points="935.3546,-252 792.6454,-252 792.6454,-216 935.3546,-216 935.3546,-252"/>
<text text-anchor="middle" x="864" y="-229.8" font-family="Times,serif" font-size="14.00" fill="#000000">FieldBuilderDirective </text>
</g>
<!-- UiKitFormBuilderModule&#45;&gt;FieldBuilderDirective  -->
<g id="edge15" class="edge">
<title>UiKitFormBuilderModule&#45;&gt;FieldBuilderDirective </title>
<path fill="none" stroke="#000000" stroke-dasharray="5,2" d="M782.7302,-187.1061C782.7302,-206.3391 782.7302,-234 782.7302,-234 782.7302,-234 783.7267,-234 783.7267,-234"/>
<polygon fill="#000000" stroke="#000000" points="782.6955,-237.5001 792.6955,-234 782.6954,-230.5001 782.6955,-237.5001"/>
</g>
<!-- FormBuilderComponent  -->
<g id="node17" class="node">
<title>FormBuilderComponent </title>
<polygon fill="#fb8072" stroke="#000000" points="774.6593,-252 617.3407,-252 617.3407,-216 774.6593,-216 774.6593,-252"/>
<text text-anchor="middle" x="696" y="-229.8" font-family="Times,serif" font-size="14.00" fill="#000000">FormBuilderComponent </text>
</g>
<!-- UiKitFormBuilderModule&#45;&gt;FormBuilderComponent  -->
<g id="edge16" class="edge">
<title>UiKitFormBuilderModule&#45;&gt;FormBuilderComponent </title>
<path fill="none" stroke="#000000" stroke-dasharray="5,2" d="M700.8494,-187.1061C700.8494,-187.1061 700.8494,-205.991 700.8494,-205.991"/>
<polygon fill="#000000" stroke="#000000" points="697.3495,-205.9909 700.8494,-215.991 704.3495,-205.991 697.3495,-205.9909"/>
</g>
<!-- InputComponent  -->
<g id="node18" class="node">
<title>InputComponent </title>
<polygon fill="#fb8072" stroke="#000000" points="599.3842,-252 484.6158,-252 484.6158,-216 599.3842,-216 599.3842,-252"/>
<text text-anchor="middle" x="542" y="-229.8" font-family="Times,serif" font-size="14.00" fill="#000000">InputComponent </text>
</g>
<!-- UiKitFormBuilderModule&#45;&gt;InputComponent  -->
<g id="edge17" class="edge">
<title>UiKitFormBuilderModule&#45;&gt;InputComponent </title>
<path fill="none" stroke="#000000" stroke-dasharray="5,2" d="M626.767,-183C586.8398,-183 547.375,-183 547.375,-183 547.375,-183 547.375,-205.8757 547.375,-205.8757"/>
<polygon fill="#000000" stroke="#000000" points="543.8751,-205.8757 547.375,-215.8757 550.8751,-205.8757 543.8751,-205.8757"/>
</g>
<!-- RadiobuttonComponent  -->
<g id="node19" class="node">
<title>RadiobuttonComponent </title>
<polygon fill="#fb8072" stroke="#000000" points="467.0554,-252 312.9446,-252 312.9446,-216 467.0554,-216 467.0554,-252"/>
<text text-anchor="middle" x="390" y="-229.8" font-family="Times,serif" font-size="14.00" fill="#000000">RadiobuttonComponent </text>
</g>
<!-- UiKitFormBuilderModule&#45;&gt;RadiobuttonComponent  -->
<g id="edge18" class="edge">
<title>UiKitFormBuilderModule&#45;&gt;RadiobuttonComponent </title>
<path fill="none" stroke="#000000" stroke-dasharray="5,2" d="M626.9928,-179C534.5156,-179 396.875,-179 396.875,-179 396.875,-179 396.875,-205.9909 396.875,-205.9909"/>
<polygon fill="#000000" stroke="#000000" points="393.3751,-205.9909 396.875,-215.9909 400.3751,-205.991 393.3751,-205.9909"/>
</g>
<!-- SelectComponent  -->
<g id="node20" class="node">
<title>SelectComponent </title>
<polygon fill="#fb8072" stroke="#000000" points="294.54,-252 175.46,-252 175.46,-216 294.54,-216 294.54,-252"/>
<text text-anchor="middle" x="235" y="-229.8" font-family="Times,serif" font-size="14.00" fill="#000000">SelectComponent </text>
</g>
<!-- UiKitFormBuilderModule&#45;&gt;SelectComponent  -->
<g id="edge19" class="edge">
<title>UiKitFormBuilderModule&#45;&gt;SelectComponent </title>
<path fill="none" stroke="#000000" stroke-dasharray="5,2" d="M627.1826,-175C493.7203,-175 243.875,-175 243.875,-175 243.875,-175 243.875,-205.9775 243.875,-205.9775"/>
<polygon fill="#000000" stroke="#000000" points="240.3751,-205.9774 243.875,-215.9775 247.3751,-205.9775 240.3751,-205.9774"/>
</g>
<!-- TextareaComponent  -->
<g id="node21" class="node">
<title>TextareaComponent </title>
<polygon fill="#fb8072" stroke="#000000" points="157.7948,-252 24.2052,-252 24.2052,-216 157.7948,-216 157.7948,-252"/>
<text text-anchor="middle" x="91" y="-229.8" font-family="Times,serif" font-size="14.00" fill="#000000">TextareaComponent </text>
</g>
<!-- UiKitFormBuilderModule&#45;&gt;TextareaComponent  -->
<g id="edge20" class="edge">
<title>UiKitFormBuilderModule&#45;&gt;TextareaComponent </title>
<path fill="none" stroke="#000000" stroke-dasharray="5,2" d="M627.053,-171C461.1974,-171 101.375,-171 101.375,-171 101.375,-171 101.375,-205.7778 101.375,-205.7778"/>
<polygon fill="#000000" stroke="#000000" points="97.8751,-205.7778 101.375,-215.7778 104.8751,-205.7778 97.8751,-205.7778"/>
</g>
</g>
</svg>
