<?xml version="1.0" encoding="UTF-8" standalone="no"?>
<!DOCTYPE svg PUBLIC "-//W3C//DTD SVG 1.1//EN"
 "http://www.w3.org/Graphics/SVG/1.1/DTD/svg11.dtd">
<!-- Generated by graphviz version 2.40.1 (20161225.0304)
 -->
<!-- Title: dependencies Pages: 1 -->
<svg width="504pt" height="284pt"
 viewBox="0.00 0.00 504.00 284.00" xmlns="http://www.w3.org/2000/svg" xmlns:xlink="http://www.w3.org/1999/xlink">
<g id="graph0" class="graph" transform="scale(1 1) rotate(0) translate(4 280)">
<title>dependencies</title>
<polygon fill="#ffffff" stroke="transparent" points="-4,4 -4,-280 500,-280 500,4 -4,4"/>
<text text-anchor="start" x="227.0091" y="-42.4" font-family="sans-serif" font-weight="bold" font-size="14.00" fill="#000000">Legend</text>
<polygon fill="#ffffb3" stroke="transparent" points="14,-10 14,-30 34,-30 34,-10 14,-10"/>
<text text-anchor="start" x="37.629" y="-15.4" font-family="sans-serif" font-size="14.00" fill="#000000"> &#160;Declarations</text>
<polygon fill="#8dd3c7" stroke="transparent" points="127,-10 127,-30 147,-30 147,-10 127,-10"/>
<text text-anchor="start" x="150.7251" y="-15.4" font-family="sans-serif" font-size="14.00" fill="#000000"> &#160;Module</text>
<polygon fill="#80b1d3" stroke="transparent" points="213,-10 213,-30 233,-30 233,-10 213,-10"/>
<text text-anchor="start" x="236.7812" y="-15.4" font-family="sans-serif" font-size="14.00" fill="#000000"> &#160;Bootstrap</text>
<polygon fill="#fdb462" stroke="transparent" points="310,-10 310,-30 330,-30 330,-10 310,-10"/>
<text text-anchor="start" x="333.6732" y="-15.4" font-family="sans-serif" font-size="14.00" fill="#000000"> &#160;Providers</text>
<polygon fill="#fb8072" stroke="transparent" points="406,-10 406,-30 426,-30 426,-10 406,-10"/>
<text text-anchor="start" x="429.7258" y="-15.4" font-family="sans-serif" font-size="14.00" fill="#000000"> &#160;Exports</text>
<g id="clust1" class="cluster">
<title>cluster_UiKitCardModule</title>
<polygon fill="none" stroke="#000000" stroke-dasharray="1,5" points="122,-70 122,-268 374,-268 374,-70 122,-70"/>
</g>
<g id="clust2" class="cluster">
<title>cluster_UiKitCardModule_declarations</title>
<polygon fill="none" stroke="#000000" points="134,-78 134,-130 362,-130 362,-78 134,-78"/>
</g>
<g id="clust6" class="cluster">
<title>cluster_UiKitCardModule_exports</title>
<polygon fill="none" stroke="#000000" points="130,-208 130,-260 366,-260 366,-208 130,-208"/>
</g>
<!-- FlipComponent -->
<g id="node1" class="node">
<title>FlipComponent</title>
<polygon fill="#ffffb3" stroke="#000000" points="353.8963,-122 250.1037,-122 250.1037,-86 353.8963,-86 353.8963,-122"/>
<text text-anchor="middle" x="302" y="-99.8" font-family="Times,serif" font-size="14.00" fill="#000000">FlipComponent</text>
</g>
<!-- UiKitCardModule -->
<g id="node3" class="node">
<title>UiKitCardModule</title>
<polygon fill="#8dd3c7" stroke="#000000" points="302.1471,-187 299.1471,-191 278.1471,-191 275.1471,-187 183.8529,-187 183.8529,-151 302.1471,-151 302.1471,-187"/>
<text text-anchor="middle" x="243" y="-164.8" font-family="Times,serif" font-size="14.00" fill="#000000">UiKitCardModule</text>
</g>
<!-- FlipComponent&#45;&gt;UiKitCardModule -->
<g id="edge1" class="edge">
<title>FlipComponent&#45;&gt;UiKitCardModule</title>
<path fill="none" stroke="#000000" d="M276.1876,-122.1061C276.1876,-122.1061 276.1876,-140.991 276.1876,-140.991"/>
<polygon fill="#000000" stroke="#000000" points="272.6877,-140.9909 276.1876,-150.991 279.6877,-140.991 272.6877,-140.9909"/>
</g>
<!-- FlipDirective -->
<g id="node2" class="node">
<title>FlipDirective</title>
<polygon fill="#ffffb3" stroke="#000000" points="232.1473,-122 141.8527,-122 141.8527,-86 232.1473,-86 232.1473,-122"/>
<text text-anchor="middle" x="187" y="-99.8" font-family="Times,serif" font-size="14.00" fill="#000000">FlipDirective</text>
</g>
<!-- FlipDirective&#45;&gt;UiKitCardModule -->
<g id="edge2" class="edge">
<title>FlipDirective&#45;&gt;UiKitCardModule</title>
<path fill="none" stroke="#000000" d="M208,-122.1061C208,-122.1061 208,-140.991 208,-140.991"/>
<polygon fill="#000000" stroke="#000000" points="204.5001,-140.9909 208,-150.991 211.5001,-140.991 204.5001,-140.9909"/>
</g>
<!-- FlipComponent  -->
<g id="node4" class="node">
<title>FlipComponent </title>
<polygon fill="#fb8072" stroke="#000000" points="357.8969,-252 250.1031,-252 250.1031,-216 357.8969,-216 357.8969,-252"/>
<text text-anchor="middle" x="304" y="-229.8" font-family="Times,serif" font-size="14.00" fill="#000000">FlipComponent </text>
</g>
<!-- UiKitCardModule&#45;&gt;FlipComponent  -->
<g id="edge3" class="edge">
<title>UiKitCardModule&#45;&gt;FlipComponent </title>
<path fill="none" stroke="#000000" stroke-dasharray="5,2" d="M276.3126,-187.1061C276.3126,-187.1061 276.3126,-205.991 276.3126,-205.991"/>
<polygon fill="#000000" stroke="#000000" points="272.8127,-205.9909 276.3126,-215.991 279.8127,-205.991 272.8127,-205.9909"/>
</g>
<!-- FlipDirective  -->
<g id="node5" class="node">
<title>FlipDirective </title>
<polygon fill="#fb8072" stroke="#000000" points="232.1467,-252 137.8533,-252 137.8533,-216 232.1467,-216 232.1467,-252"/>
<text text-anchor="middle" x="185" y="-229.8" font-family="Times,serif" font-size="14.00" fill="#000000">FlipDirective </text>
</g>
<!-- UiKitCardModule&#45;&gt;FlipDirective  -->
<g id="edge4" class="edge">
<title>UiKitCardModule&#45;&gt;FlipDirective </title>
<path fill="none" stroke="#000000" stroke-dasharray="5,2" d="M207.875,-187.1061C207.875,-187.1061 207.875,-205.991 207.875,-205.991"/>
<polygon fill="#000000" stroke="#000000" points="204.3751,-205.9909 207.875,-215.991 211.3751,-205.991 204.3751,-205.9909"/>
</g>
</g>
</svg>
