<?xml version="1.0" encoding="UTF-8" standalone="no"?>
<!DOCTYPE svg PUBLIC "-//W3C//DTD SVG 1.1//EN"
 "http://www.w3.org/Graphics/SVG/1.1/DTD/svg11.dtd">
<!-- Generated by graphviz version 2.40.1 (20161225.0304)
 -->
<!-- Title: dependencies Pages: 1 -->
<svg width="975pt" height="284pt"
 viewBox="0.00 0.00 975.00 284.00" xmlns="http://www.w3.org/2000/svg" xmlns:xlink="http://www.w3.org/1999/xlink">
<g id="graph0" class="graph" transform="scale(1 1) rotate(0) translate(4 280)">
<title>dependencies</title>
<polygon fill="#ffffff" stroke="transparent" points="-4,4 -4,-280 971,-280 971,4 -4,4"/>
<text text-anchor="start" x="462.5091" y="-42.4" font-family="sans-serif" font-weight="bold" font-size="14.00" fill="#000000">Legend</text>
<polygon fill="#ffffb3" stroke="transparent" points="249.5,-10 249.5,-30 269.5,-30 269.5,-10 249.5,-10"/>
<text text-anchor="start" x="273.129" y="-15.4" font-family="sans-serif" font-size="14.00" fill="#000000"> &#160;Declarations</text>
<polygon fill="#8dd3c7" stroke="transparent" points="362.5,-10 362.5,-30 382.5,-30 382.5,-10 362.5,-10"/>
<text text-anchor="start" x="386.2251" y="-15.4" font-family="sans-serif" font-size="14.00" fill="#000000"> &#160;Module</text>
<polygon fill="#80b1d3" stroke="transparent" points="448.5,-10 448.5,-30 468.5,-30 468.5,-10 448.5,-10"/>
<text text-anchor="start" x="472.2812" y="-15.4" font-family="sans-serif" font-size="14.00" fill="#000000"> &#160;Bootstrap</text>
<polygon fill="#fdb462" stroke="transparent" points="545.5,-10 545.5,-30 565.5,-30 565.5,-10 545.5,-10"/>
<text text-anchor="start" x="569.1732" y="-15.4" font-family="sans-serif" font-size="14.00" fill="#000000"> &#160;Providers</text>
<polygon fill="#fb8072" stroke="transparent" points="641.5,-10 641.5,-30 661.5,-30 661.5,-10 641.5,-10"/>
<text text-anchor="start" x="665.2258" y="-15.4" font-family="sans-serif" font-size="14.00" fill="#000000"> &#160;Exports</text>
<g id="clust1" class="cluster">
<title>cluster_AccountSharedAuthModule</title>
<polygon fill="none" stroke="#000000" stroke-dasharray="1,5" points="8,-70 8,-268 959,-268 959,-70 8,-70"/>
</g>
<g id="clust2" class="cluster">
<title>cluster_AccountSharedAuthModule_declarations</title>
<polygon fill="none" stroke="#000000" points="306,-78 306,-130 951,-130 951,-78 306,-78"/>
</g>
<g id="clust8" class="cluster">
<title>cluster_AccountSharedAuthModule_exports</title>
<polygon fill="none" stroke="#000000" points="135,-208 135,-260 793,-260 793,-208 135,-208"/>
</g>
<g id="clust10" class="cluster">
<title>cluster_AccountSharedAuthModule_providers</title>
<polygon fill="none" stroke="#000000" points="16,-78 16,-130 298,-130 298,-78 16,-78"/>
</g>
<!-- ForgotPasswordComponent -->
<g id="node1" class="node">
<title>ForgotPasswordComponent</title>
<polygon fill="#ffffb3" stroke="#000000" points="943.3201,-122 770.6799,-122 770.6799,-86 943.3201,-86 943.3201,-122"/>
<text text-anchor="middle" x="857" y="-99.8" font-family="Times,serif" font-size="14.00" fill="#000000">ForgotPasswordComponent</text>
</g>
<!-- AccountSharedAuthModule -->
<g id="node5" class="node">
<title>AccountSharedAuthModule</title>
<polygon fill="#8dd3c7" stroke="#000000" points="537.8459,-187 534.8459,-191 513.8459,-191 510.8459,-187 364.1541,-187 364.1541,-151 537.8459,-151 537.8459,-187"/>
<text text-anchor="middle" x="451" y="-164.8" font-family="Times,serif" font-size="14.00" fill="#000000">AccountSharedAuthModule</text>
</g>
<!-- ForgotPasswordComponent&#45;&gt;AccountSharedAuthModule -->
<g id="edge1" class="edge">
<title>ForgotPasswordComponent&#45;&gt;AccountSharedAuthModule</title>
<path fill="none" stroke="#000000" d="M777.875,-122.1061C777.875,-141.3391 777.875,-169 777.875,-169 777.875,-169 548.1671,-169 548.1671,-169"/>
<polygon fill="#000000" stroke="#000000" points="548.1671,-165.5001 538.1671,-169 548.1671,-172.5001 548.1671,-165.5001"/>
</g>
<!-- LoginComponent -->
<g id="node2" class="node">
<title>LoginComponent</title>
<polygon fill="#ffffb3" stroke="#000000" points="752.2758,-122 637.7242,-122 637.7242,-86 752.2758,-86 752.2758,-122"/>
<text text-anchor="middle" x="695" y="-99.8" font-family="Times,serif" font-size="14.00" fill="#000000">LoginComponent</text>
</g>
<!-- LoginComponent&#45;&gt;AccountSharedAuthModule -->
<g id="edge2" class="edge">
<title>LoginComponent&#45;&gt;AccountSharedAuthModule</title>
<path fill="none" stroke="#000000" d="M695,-122.027C695,-138.3976 695,-160 695,-160 695,-160 548.0562,-160 548.0562,-160"/>
<polygon fill="#000000" stroke="#000000" points="548.0563,-156.5001 538.0562,-160 548.0562,-163.5001 548.0563,-156.5001"/>
</g>
<!-- PasswordResetComponent -->
<g id="node3" class="node">
<title>PasswordResetComponent</title>
<polygon fill="#ffffb3" stroke="#000000" points="620.087,-122 453.913,-122 453.913,-86 620.087,-86 620.087,-122"/>
<text text-anchor="middle" x="537" y="-99.8" font-family="Times,serif" font-size="14.00" fill="#000000">PasswordResetComponent</text>
</g>
<!-- PasswordResetComponent&#45;&gt;AccountSharedAuthModule -->
<g id="edge3" class="edge">
<title>PasswordResetComponent&#45;&gt;AccountSharedAuthModule</title>
<path fill="none" stroke="#000000" d="M495.9397,-122.1061C495.9397,-122.1061 495.9397,-140.991 495.9397,-140.991"/>
<polygon fill="#000000" stroke="#000000" points="492.4398,-140.9909 495.9397,-150.991 499.4398,-140.991 492.4398,-140.9909"/>
</g>
<!-- SignupComponent -->
<g id="node4" class="node">
<title>SignupComponent</title>
<polygon fill="#ffffb3" stroke="#000000" points="435.5056,-122 314.4944,-122 314.4944,-86 435.5056,-86 435.5056,-122"/>
<text text-anchor="middle" x="375" y="-99.8" font-family="Times,serif" font-size="14.00" fill="#000000">SignupComponent</text>
</g>
<!-- SignupComponent&#45;&gt;AccountSharedAuthModule -->
<g id="edge4" class="edge">
<title>SignupComponent&#45;&gt;AccountSharedAuthModule</title>
<path fill="none" stroke="#000000" d="M399.7899,-122.1061C399.7899,-122.1061 399.7899,-140.991 399.7899,-140.991"/>
<polygon fill="#000000" stroke="#000000" points="396.29,-140.9909 399.7899,-150.991 403.29,-140.991 396.29,-140.9909"/>
</g>
<!-- ForgotPasswordComponent  -->
<g id="node6" class="node">
<title>ForgotPasswordComponent </title>
<polygon fill="#fb8072" stroke="#000000" points="784.8199,-252 609.1801,-252 609.1801,-216 784.8199,-216 784.8199,-252"/>
<text text-anchor="middle" x="697" y="-229.8" font-family="Times,serif" font-size="14.00" fill="#000000">ForgotPasswordComponent </text>
</g>
<!-- AccountSharedAuthModule&#45;&gt;ForgotPasswordComponent  -->
<g id="edge5" class="edge">
<title>AccountSharedAuthModule&#45;&gt;ForgotPasswordComponent </title>
<path fill="none" stroke="#000000" stroke-dasharray="5,2" d="M538.0514,-178C577.1137,-178 614.5668,-178 614.5668,-178 614.5668,-178 614.5668,-205.973 614.5668,-205.973"/>
<polygon fill="#000000" stroke="#000000" points="611.0669,-205.973 614.5668,-215.973 618.0669,-205.973 611.0669,-205.973"/>
</g>
<!-- LoginComponent  -->
<g id="node7" class="node">
<title>LoginComponent </title>
<polygon fill="#fb8072" stroke="#000000" points="591.2759,-252 472.7241,-252 472.7241,-216 591.2759,-216 591.2759,-252"/>
<text text-anchor="middle" x="532" y="-229.8" font-family="Times,serif" font-size="14.00" fill="#000000">LoginComponent </text>
</g>
<!-- AccountSharedAuthModule&#45;&gt;LoginComponent  -->
<g id="edge6" class="edge">
<title>AccountSharedAuthModule&#45;&gt;LoginComponent </title>
<path fill="none" stroke="#000000" stroke-dasharray="5,2" d="M505.3926,-187.1061C505.3926,-187.1061 505.3926,-205.991 505.3926,-205.991"/>
<polygon fill="#000000" stroke="#000000" points="501.8926,-205.9909 505.3926,-215.991 508.8926,-205.991 501.8926,-205.9909"/>
</g>
<!-- PasswordResetComponent  -->
<g id="node8" class="node">
<title>PasswordResetComponent </title>
<polygon fill="#fb8072" stroke="#000000" points="454.5875,-252 285.4125,-252 285.4125,-216 454.5875,-216 454.5875,-252"/>
<text text-anchor="middle" x="370" y="-229.8" font-family="Times,serif" font-size="14.00" fill="#000000">PasswordResetComponent </text>
</g>
<!-- AccountSharedAuthModule&#45;&gt;PasswordResetComponent  -->
<g id="edge7" class="edge">
<title>AccountSharedAuthModule&#45;&gt;PasswordResetComponent </title>
<path fill="none" stroke="#000000" stroke-dasharray="5,2" d="M409.4353,-187.1061C409.4353,-187.1061 409.4353,-205.991 409.4353,-205.991"/>
<polygon fill="#000000" stroke="#000000" points="405.9354,-205.9909 409.4353,-215.991 412.9354,-205.991 405.9354,-205.9909"/>
</g>
<!-- SignupComponent  -->
<g id="node9" class="node">
<title>SignupComponent </title>
<polygon fill="#fb8072" stroke="#000000" points="267.0066,-252 142.9934,-252 142.9934,-216 267.0066,-216 267.0066,-252"/>
<text text-anchor="middle" x="205" y="-229.8" font-family="Times,serif" font-size="14.00" fill="#000000">SignupComponent </text>
</g>
<!-- AccountSharedAuthModule&#45;&gt;SignupComponent  -->
<g id="edge8" class="edge">
<title>AccountSharedAuthModule&#45;&gt;SignupComponent </title>
<path fill="none" stroke="#000000" stroke-dasharray="5,2" d="M364.1297,-178C298.4334,-178 219.4745,-178 219.4745,-178 219.4745,-178 219.4745,-205.973 219.4745,-205.973"/>
<polygon fill="#000000" stroke="#000000" points="215.9746,-205.973 219.4745,-215.973 222.9746,-205.973 215.9746,-205.973"/>
</g>
<!-- AuthService -->
<g id="node10" class="node">
<title>AuthService</title>
<ellipse fill="#fdb462" stroke="#000000" cx="231" cy="-104" rx="59.1083" ry="18"/>
<text text-anchor="middle" x="231" y="-99.8" font-family="Times,serif" font-size="14.00" fill="#000000">AuthService</text>
</g>
<!-- AuthService&#45;&gt;AccountSharedAuthModule -->
<g id="edge9" class="edge">
<title>AuthService&#45;&gt;AccountSharedAuthModule</title>
<path fill="none" stroke="#000000" d="M276.2297,-115.8762C276.2297,-132.3145 276.2297,-160 276.2297,-160 276.2297,-160 354.1268,-160 354.1268,-160"/>
<polygon fill="#000000" stroke="#000000" points="354.1269,-163.5001 364.1268,-160 354.1268,-156.5001 354.1269,-163.5001"/>
</g>
<!-- TokenService -->
<g id="node11" class="node">
<title>TokenService</title>
<ellipse fill="#fdb462" stroke="#000000" cx="89" cy="-104" rx="64.8273" ry="18"/>
<text text-anchor="middle" x="89" y="-99.8" font-family="Times,serif" font-size="14.00" fill="#000000">TokenService</text>
</g>
<!-- TokenService&#45;&gt;AccountSharedAuthModule -->
<g id="edge10" class="edge">
<title>TokenService&#45;&gt;AccountSharedAuthModule</title>
<path fill="none" stroke="#000000" d="M148.2053,-111.4563C148.2053,-128.5297 148.2053,-169 148.2053,-169 148.2053,-169 353.8255,-169 353.8255,-169"/>
<polygon fill="#000000" stroke="#000000" points="353.8255,-172.5001 363.8255,-169 353.8254,-165.5001 353.8255,-172.5001"/>
</g>
</g>
</svg>
