<?xml version="1.0" encoding="UTF-8" standalone="no"?>
<!DOCTYPE svg PUBLIC "-//W3C//DTD SVG 1.1//EN"
 "http://www.w3.org/Graphics/SVG/1.1/DTD/svg11.dtd">
<!-- Generated by graphviz version 2.40.1 (20161225.0304)
 -->
<!-- Title: dependencies Pages: 1 -->
<svg width="600pt" height="284pt"
 viewBox="0.00 0.00 600.00 284.00" xmlns="http://www.w3.org/2000/svg" xmlns:xlink="http://www.w3.org/1999/xlink">
<g id="graph0" class="graph" transform="scale(1 1) rotate(0) translate(4 280)">
<title>dependencies</title>
<polygon fill="#ffffff" stroke="transparent" points="-4,4 -4,-280 596,-280 596,4 -4,4"/>
<text text-anchor="start" x="275.0091" y="-42.4" font-family="sans-serif" font-weight="bold" font-size="14.00" fill="#000000">Legend</text>
<polygon fill="#ffffb3" stroke="transparent" points="62,-10 62,-30 82,-30 82,-10 62,-10"/>
<text text-anchor="start" x="85.629" y="-15.4" font-family="sans-serif" font-size="14.00" fill="#000000"> &#160;Declarations</text>
<polygon fill="#8dd3c7" stroke="transparent" points="175,-10 175,-30 195,-30 195,-10 175,-10"/>
<text text-anchor="start" x="198.7251" y="-15.4" font-family="sans-serif" font-size="14.00" fill="#000000"> &#160;Module</text>
<polygon fill="#80b1d3" stroke="transparent" points="261,-10 261,-30 281,-30 281,-10 261,-10"/>
<text text-anchor="start" x="284.7812" y="-15.4" font-family="sans-serif" font-size="14.00" fill="#000000"> &#160;Bootstrap</text>
<polygon fill="#fdb462" stroke="transparent" points="358,-10 358,-30 378,-30 378,-10 358,-10"/>
<text text-anchor="start" x="381.6732" y="-15.4" font-family="sans-serif" font-size="14.00" fill="#000000"> &#160;Providers</text>
<polygon fill="#fb8072" stroke="transparent" points="454,-10 454,-30 474,-30 474,-10 454,-10"/>
<text text-anchor="start" x="477.7258" y="-15.4" font-family="sans-serif" font-size="14.00" fill="#000000"> &#160;Exports</text>
<g id="clust1" class="cluster">
<title>cluster_AccountSharedAuthModule</title>
<polygon fill="none" stroke="#000000" stroke-dasharray="1,5" points="8,-70 8,-268 584,-268 584,-70 8,-70"/>
</g>
<g id="clust2" class="cluster">
<title>cluster_AccountSharedAuthModule_declarations</title>
<polygon fill="none" stroke="#000000" points="306,-78 306,-130 576,-130 576,-78 306,-78"/>
</g>
<g id="clust6" class="cluster">
<title>cluster_AccountSharedAuthModule_exports</title>
<polygon fill="none" stroke="#000000" points="163,-208 163,-260 439,-260 439,-208 163,-208"/>
</g>
<g id="clust8" class="cluster">
<title>cluster_AccountSharedAuthModule_providers</title>
<polygon fill="none" stroke="#000000" points="16,-78 16,-130 298,-130 298,-78 16,-78"/>
</g>
<!-- LoginComponent -->
<g id="node1" class="node">
<title>LoginComponent</title>
<polygon fill="#ffffb3" stroke="#000000" points="568.2758,-122 453.7242,-122 453.7242,-86 568.2758,-86 568.2758,-122"/>
<text text-anchor="middle" x="511" y="-99.8" font-family="Times,serif" font-size="14.00" fill="#000000">LoginComponent</text>
</g>
<!-- AccountSharedAuthModule -->
<g id="node3" class="node">
<title>AccountSharedAuthModule</title>
<polygon fill="#8dd3c7" stroke="#000000" points="389.8459,-187 386.8459,-191 365.8459,-191 362.8459,-187 216.1541,-187 216.1541,-151 389.8459,-151 389.8459,-187"/>
<text text-anchor="middle" x="303" y="-164.8" font-family="Times,serif" font-size="14.00" fill="#000000">AccountSharedAuthModule</text>
</g>
<!-- LoginComponent&#45;&gt;AccountSharedAuthModule -->
<g id="edge1" class="edge">
<title>LoginComponent&#45;&gt;AccountSharedAuthModule</title>
<path fill="none" stroke="#000000" d="M511,-122.1061C511,-141.3391 511,-169 511,-169 511,-169 400.0055,-169 400.0055,-169"/>
<polygon fill="#000000" stroke="#000000" points="400.0056,-165.5001 390.0055,-169 400.0055,-172.5001 400.0056,-165.5001"/>
</g>
<!-- SignupComponent -->
<g id="node2" class="node">
<title>SignupComponent</title>
<polygon fill="#ffffb3" stroke="#000000" points="435.5056,-122 314.4944,-122 314.4944,-86 435.5056,-86 435.5056,-122"/>
<text text-anchor="middle" x="375" y="-99.8" font-family="Times,serif" font-size="14.00" fill="#000000">SignupComponent</text>
</g>
<!-- SignupComponent&#45;&gt;AccountSharedAuthModule -->
<g id="edge2" class="edge">
<title>SignupComponent&#45;&gt;AccountSharedAuthModule</title>
<path fill="none" stroke="#000000" d="M352.2101,-122.1061C352.2101,-122.1061 352.2101,-140.991 352.2101,-140.991"/>
<polygon fill="#000000" stroke="#000000" points="348.7101,-140.9909 352.2101,-150.991 355.7101,-140.991 348.7101,-140.9909"/>
</g>
<!-- LoginComponent  -->
<g id="node4" class="node">
<title>LoginComponent </title>
<polygon fill="#fb8072" stroke="#000000" points="431.2759,-252 312.7241,-252 312.7241,-216 431.2759,-216 431.2759,-252"/>
<text text-anchor="middle" x="372" y="-229.8" font-family="Times,serif" font-size="14.00" fill="#000000">LoginComponent </text>
</g>
<!-- AccountSharedAuthModule&#45;&gt;LoginComponent  -->
<g id="edge3" class="edge">
<title>AccountSharedAuthModule&#45;&gt;LoginComponent </title>
<path fill="none" stroke="#000000" stroke-dasharray="5,2" d="M351.3926,-187.1061C351.3926,-187.1061 351.3926,-205.991 351.3926,-205.991"/>
<polygon fill="#000000" stroke="#000000" points="347.8926,-205.9909 351.3926,-215.991 354.8926,-205.991 347.8926,-205.9909"/>
</g>
<!-- SignupComponent  -->
<g id="node5" class="node">
<title>SignupComponent </title>
<polygon fill="#fb8072" stroke="#000000" points="295.0066,-252 170.9934,-252 170.9934,-216 295.0066,-216 295.0066,-252"/>
<text text-anchor="middle" x="233" y="-229.8" font-family="Times,serif" font-size="14.00" fill="#000000">SignupComponent </text>
</g>
<!-- AccountSharedAuthModule&#45;&gt;SignupComponent  -->
<g id="edge4" class="edge">
<title>AccountSharedAuthModule&#45;&gt;SignupComponent </title>
<path fill="none" stroke="#000000" stroke-dasharray="5,2" d="M255.6649,-187.1061C255.6649,-187.1061 255.6649,-205.991 255.6649,-205.991"/>
<polygon fill="#000000" stroke="#000000" points="252.165,-205.9909 255.6649,-215.991 259.165,-205.991 252.165,-205.9909"/>
</g>
<!-- AuthService -->
<g id="node6" class="node">
<title>AuthService</title>
<ellipse fill="#fdb462" stroke="#000000" cx="231" cy="-104" rx="59.1083" ry="18"/>
<text text-anchor="middle" x="231" y="-99.8" font-family="Times,serif" font-size="14.00" fill="#000000">AuthService</text>
</g>
<!-- AuthService&#45;&gt;AccountSharedAuthModule -->
<g id="edge5" class="edge">
<title>AuthService&#45;&gt;AccountSharedAuthModule</title>
<path fill="none" stroke="#000000" d="M253.1905,-120.7391C253.1905,-120.7391 253.1905,-140.7182 253.1905,-140.7182"/>
<polygon fill="#000000" stroke="#000000" points="249.6906,-140.7182 253.1905,-150.7182 256.6906,-140.7182 249.6906,-140.7182"/>
</g>
<!-- TokenService -->
<g id="node7" class="node">
<title>TokenService</title>
<ellipse fill="#fdb462" stroke="#000000" cx="89" cy="-104" rx="64.8273" ry="18"/>
<text text-anchor="middle" x="89" y="-99.8" font-family="Times,serif" font-size="14.00" fill="#000000">TokenService</text>
</g>
<!-- TokenService&#45;&gt;AccountSharedAuthModule -->
<g id="edge6" class="edge">
<title>TokenService&#45;&gt;AccountSharedAuthModule</title>
<path fill="none" stroke="#000000" d="M89,-122.1061C89,-141.3391 89,-169 89,-169 89,-169 205.958,-169 205.958,-169"/>
<polygon fill="#000000" stroke="#000000" points="205.958,-172.5001 215.958,-169 205.958,-165.5001 205.958,-172.5001"/>
</g>
</g>
</svg>
