<?xml version="1.0" encoding="UTF-8" standalone="no"?>
<!DOCTYPE svg PUBLIC "-//W3C//DTD SVG 1.1//EN"
 "http://www.w3.org/Graphics/SVG/1.1/DTD/svg11.dtd">
<!-- Generated by graphviz version 2.40.1 (20161225.0304)
 -->
<!-- Title: dependencies Pages: 1 -->
<svg width="552pt" height="284pt"
 viewBox="0.00 0.00 552.00 284.00" xmlns="http://www.w3.org/2000/svg" xmlns:xlink="http://www.w3.org/1999/xlink">
<g id="graph0" class="graph" transform="scale(1 1) rotate(0) translate(4 280)">
<title>dependencies</title>
<polygon fill="#ffffff" stroke="transparent" points="-4,4 -4,-280 548,-280 548,4 -4,4"/>
<text text-anchor="start" x="251.0091" y="-42.4" font-family="sans-serif" font-weight="bold" font-size="14.00" fill="#000000">Legend</text>
<polygon fill="#ffffb3" stroke="transparent" points="38,-10 38,-30 58,-30 58,-10 38,-10"/>
<text text-anchor="start" x="61.629" y="-15.4" font-family="sans-serif" font-size="14.00" fill="#000000"> &#160;Declarations</text>
<polygon fill="#8dd3c7" stroke="transparent" points="151,-10 151,-30 171,-30 171,-10 151,-10"/>
<text text-anchor="start" x="174.7251" y="-15.4" font-family="sans-serif" font-size="14.00" fill="#000000"> &#160;Module</text>
<polygon fill="#80b1d3" stroke="transparent" points="237,-10 237,-30 257,-30 257,-10 237,-10"/>
<text text-anchor="start" x="260.7812" y="-15.4" font-family="sans-serif" font-size="14.00" fill="#000000"> &#160;Bootstrap</text>
<polygon fill="#fdb462" stroke="transparent" points="334,-10 334,-30 354,-30 354,-10 334,-10"/>
<text text-anchor="start" x="357.6732" y="-15.4" font-family="sans-serif" font-size="14.00" fill="#000000"> &#160;Providers</text>
<polygon fill="#fb8072" stroke="transparent" points="430,-10 430,-30 450,-30 450,-10 430,-10"/>
<text text-anchor="start" x="453.7258" y="-15.4" font-family="sans-serif" font-size="14.00" fill="#000000"> &#160;Exports</text>
<g id="clust1" class="cluster">
<title>cluster_AccountSharedUserModule</title>
<polygon fill="none" stroke="#000000" stroke-dasharray="1,5" points="8,-70 8,-268 536,-268 536,-70 8,-70"/>
</g>
<g id="clust2" class="cluster">
<title>cluster_AccountSharedUserModule_declarations</title>
<polygon fill="none" stroke="#000000" points="354,-78 354,-130 528,-130 528,-78 354,-78"/>
</g>
<g id="clust4" class="cluster">
<title>cluster_AccountSharedUserModule_imports</title>
<polygon fill="none" stroke="#000000" points="156,-78 156,-130 346,-130 346,-78 156,-78"/>
</g>
<g id="clust5" class="cluster">
<title>cluster_AccountSharedUserModule_exports</title>
<polygon fill="none" stroke="#000000" points="162,-208 162,-260 340,-260 340,-208 162,-208"/>
</g>
<g id="clust7" class="cluster">
<title>cluster_AccountSharedUserModule_providers</title>
<polygon fill="none" stroke="#000000" points="16,-78 16,-130 148,-130 148,-78 16,-78"/>
</g>
<!-- ToolbarMenuComponent -->
<g id="node1" class="node">
<title>ToolbarMenuComponent</title>
<polygon fill="#ffffb3" stroke="#000000" points="520.3103,-122 361.6897,-122 361.6897,-86 520.3103,-86 520.3103,-122"/>
<text text-anchor="middle" x="441" y="-99.8" font-family="Times,serif" font-size="14.00" fill="#000000">ToolbarMenuComponent</text>
</g>
<!-- AccountSharedUserModule -->
<g id="node2" class="node">
<title>AccountSharedUserModule</title>
<polygon fill="#8dd3c7" stroke="#000000" points="337.2752,-187 334.2752,-191 313.2752,-191 310.2752,-187 164.7248,-187 164.7248,-151 337.2752,-151 337.2752,-187"/>
<text text-anchor="middle" x="251" y="-164.8" font-family="Times,serif" font-size="14.00" fill="#000000">AccountSharedUserModule</text>
</g>
<!-- ToolbarMenuComponent&#45;&gt;AccountSharedUserModule -->
<g id="edge1" class="edge">
<title>ToolbarMenuComponent&#45;&gt;AccountSharedUserModule</title>
<path fill="none" stroke="#000000" d="M441,-122.1061C441,-141.3391 441,-169 441,-169 441,-169 347.3826,-169 347.3826,-169"/>
<polygon fill="#000000" stroke="#000000" points="347.3826,-165.5001 337.3826,-169 347.3826,-172.5001 347.3826,-165.5001"/>
</g>
<!-- ToolbarMenuComponent  -->
<g id="node4" class="node">
<title>ToolbarMenuComponent </title>
<polygon fill="#fb8072" stroke="#000000" points="331.8101,-252 170.1899,-252 170.1899,-216 331.8101,-216 331.8101,-252"/>
<text text-anchor="middle" x="251" y="-229.8" font-family="Times,serif" font-size="14.00" fill="#000000">ToolbarMenuComponent </text>
</g>
<!-- AccountSharedUserModule&#45;&gt;ToolbarMenuComponent  -->
<g id="edge3" class="edge">
<title>AccountSharedUserModule&#45;&gt;ToolbarMenuComponent </title>
<path fill="none" stroke="#000000" stroke-dasharray="5,2" d="M251,-187.1061C251,-187.1061 251,-205.991 251,-205.991"/>
<polygon fill="#000000" stroke="#000000" points="247.5001,-205.9909 251,-215.991 254.5001,-205.991 247.5001,-205.9909"/>
</g>
<!-- AccountSharedAuthModule -->
<g id="node3" class="node">
<title>AccountSharedAuthModule</title>
<polygon fill="#8dd3c7" stroke="#000000" points="337.8459,-122 334.8459,-126 313.8459,-126 310.8459,-122 164.1541,-122 164.1541,-86 337.8459,-86 337.8459,-122"/>
<text text-anchor="middle" x="251" y="-99.8" font-family="Times,serif" font-size="14.00" fill="#000000">AccountSharedAuthModule</text>
</g>
<!-- AccountSharedAuthModule&#45;&gt;AccountSharedUserModule -->
<g id="edge2" class="edge">
<title>AccountSharedAuthModule&#45;&gt;AccountSharedUserModule</title>
<path fill="none" stroke="#000000" d="M251,-122.1061C251,-122.1061 251,-140.991 251,-140.991"/>
<polygon fill="#000000" stroke="#000000" points="247.5001,-140.9909 251,-150.991 254.5001,-140.991 247.5001,-140.9909"/>
</g>
<!-- UserService -->
<g id="node5" class="node">
<title>UserService</title>
<ellipse fill="#fdb462" stroke="#000000" cx="82" cy="-104" rx="58.4415" ry="18"/>
<text text-anchor="middle" x="82" y="-99.8" font-family="Times,serif" font-size="14.00" fill="#000000">UserService</text>
</g>
<!-- UserService&#45;&gt;AccountSharedUserModule -->
<g id="edge4" class="edge">
<title>UserService&#45;&gt;AccountSharedUserModule</title>
<path fill="none" stroke="#000000" d="M82,-122.1061C82,-141.3391 82,-169 82,-169 82,-169 154.5197,-169 154.5197,-169"/>
<polygon fill="#000000" stroke="#000000" points="154.5197,-172.5001 164.5197,-169 154.5197,-165.5001 154.5197,-172.5001"/>
</g>
</g>
</svg>
