<?xml version="1.0" encoding="UTF-8" standalone="no"?>
<!DOCTYPE svg PUBLIC "-//W3C//DTD SVG 1.1//EN"
 "http://www.w3.org/Graphics/SVG/1.1/DTD/svg11.dtd">
<!-- Generated by graphviz version 2.40.1 (20161225.0304)
 -->
<!-- Title: dependencies Pages: 1 -->
<svg width="1324pt" height="284pt"
 viewBox="0.00 0.00 1324.00 284.00" xmlns="http://www.w3.org/2000/svg" xmlns:xlink="http://www.w3.org/1999/xlink">
<g id="graph0" class="graph" transform="scale(1 1) rotate(0) translate(4 280)">
<title>dependencies</title>
<polygon fill="#ffffff" stroke="transparent" points="-4,4 -4,-280 1320,-280 1320,4 -4,4"/>
<text text-anchor="start" x="637.0091" y="-42.4" font-family="sans-serif" font-weight="bold" font-size="14.00" fill="#000000">Legend</text>
<polygon fill="#ffffb3" stroke="transparent" points="424,-10 424,-30 444,-30 444,-10 424,-10"/>
<text text-anchor="start" x="447.629" y="-15.4" font-family="sans-serif" font-size="14.00" fill="#000000"> &#160;Declarations</text>
<polygon fill="#8dd3c7" stroke="transparent" points="537,-10 537,-30 557,-30 557,-10 537,-10"/>
<text text-anchor="start" x="560.7251" y="-15.4" font-family="sans-serif" font-size="14.00" fill="#000000"> &#160;Module</text>
<polygon fill="#80b1d3" stroke="transparent" points="623,-10 623,-30 643,-30 643,-10 623,-10"/>
<text text-anchor="start" x="646.7812" y="-15.4" font-family="sans-serif" font-size="14.00" fill="#000000"> &#160;Bootstrap</text>
<polygon fill="#fdb462" stroke="transparent" points="720,-10 720,-30 740,-30 740,-10 720,-10"/>
<text text-anchor="start" x="743.6732" y="-15.4" font-family="sans-serif" font-size="14.00" fill="#000000"> &#160;Providers</text>
<polygon fill="#fb8072" stroke="transparent" points="816,-10 816,-30 836,-30 836,-10 816,-10"/>
<text text-anchor="start" x="839.7258" y="-15.4" font-family="sans-serif" font-size="14.00" fill="#000000"> &#160;Exports</text>
<g id="clust1" class="cluster">
<title>cluster_OrganizationSharedCompanyModule</title>
<polygon fill="none" stroke="#000000" stroke-dasharray="1,5" points="8,-70 8,-268 1308,-268 1308,-70 8,-70"/>
</g>
<g id="clust2" class="cluster">
<title>cluster_OrganizationSharedCompanyModule_declarations</title>
<polygon fill="none" stroke="#000000" points="936,-78 936,-130 1300,-130 1300,-78 936,-78"/>
</g>
<g id="clust5" class="cluster">
<title>cluster_OrganizationSharedCompanyModule_imports</title>
<polygon fill="none" stroke="#000000" points="738,-78 738,-130 928,-130 928,-78 738,-78"/>
</g>
<g id="clust6" class="cluster">
<title>cluster_OrganizationSharedCompanyModule_exports</title>
<polygon fill="none" stroke="#000000" points="446,-208 446,-260 817,-260 817,-208 446,-208"/>
</g>
<g id="clust8" class="cluster">
<title>cluster_OrganizationSharedCompanyModule_providers</title>
<polygon fill="none" stroke="#000000" points="16,-78 16,-130 730,-130 730,-78 16,-78"/>
</g>
<!-- CreateCompanyComponent -->
<g id="node1" class="node">
<title>CreateCompanyComponent</title>
<polygon fill="#ffffb3" stroke="#000000" points="1292.3061,-122 1119.6939,-122 1119.6939,-86 1292.3061,-86 1292.3061,-122"/>
<text text-anchor="middle" x="1206" y="-99.8" font-family="Times,serif" font-size="14.00" fill="#000000">CreateCompanyComponent</text>
</g>
<!-- OrganizationSharedCompanyModule -->
<g id="node3" class="node">
<title>OrganizationSharedCompanyModule</title>
<polygon fill="#8dd3c7" stroke="#000000" points="740.9468,-187 737.9468,-191 716.9468,-191 713.9468,-187 515.0532,-187 515.0532,-151 740.9468,-151 740.9468,-187"/>
<text text-anchor="middle" x="628" y="-164.8" font-family="Times,serif" font-size="14.00" fill="#000000">OrganizationSharedCompanyModule</text>
</g>
<!-- CreateCompanyComponent&#45;&gt;OrganizationSharedCompanyModule -->
<g id="edge1" class="edge">
<title>CreateCompanyComponent&#45;&gt;OrganizationSharedCompanyModule</title>
<path fill="none" stroke="#000000" d="M1206,-122.2843C1206,-143.3211 1206,-175 1206,-175 1206,-175 751.1603,-175 751.1603,-175"/>
<polygon fill="#000000" stroke="#000000" points="751.1603,-171.5001 741.1603,-175 751.1602,-178.5001 751.1603,-171.5001"/>
</g>
<!-- CreateProjectComponent -->
<g id="node2" class="node">
<title>CreateProjectComponent</title>
<polygon fill="#ffffb3" stroke="#000000" points="1101.5183,-122 944.4817,-122 944.4817,-86 1101.5183,-86 1101.5183,-122"/>
<text text-anchor="middle" x="1023" y="-99.8" font-family="Times,serif" font-size="14.00" fill="#000000">CreateProjectComponent</text>
</g>
<!-- CreateProjectComponent&#45;&gt;OrganizationSharedCompanyModule -->
<g id="edge2" class="edge">
<title>CreateProjectComponent&#45;&gt;OrganizationSharedCompanyModule</title>
<path fill="none" stroke="#000000" d="M1023,-122.0225C1023,-139.3734 1023,-163 1023,-163 1023,-163 751.1911,-163 751.1911,-163"/>
<polygon fill="#000000" stroke="#000000" points="751.1912,-159.5001 741.1911,-163 751.1911,-166.5001 751.1912,-159.5001"/>
</g>
<!-- CreateCompanyComponent  -->
<g id="node5" class="node">
<title>CreateCompanyComponent </title>
<polygon fill="#fb8072" stroke="#000000" points="808.8059,-252 633.1941,-252 633.1941,-216 808.8059,-216 808.8059,-252"/>
<text text-anchor="middle" x="721" y="-229.8" font-family="Times,serif" font-size="14.00" fill="#000000">CreateCompanyComponent </text>
</g>
<!-- OrganizationSharedCompanyModule&#45;&gt;CreateCompanyComponent  -->
<g id="edge4" class="edge">
<title>OrganizationSharedCompanyModule&#45;&gt;CreateCompanyComponent </title>
<path fill="none" stroke="#000000" stroke-dasharray="5,2" d="M687.0353,-187.1061C687.0353,-187.1061 687.0353,-205.991 687.0353,-205.991"/>
<polygon fill="#000000" stroke="#000000" points="683.5353,-205.9909 687.0353,-215.991 690.5353,-205.991 683.5353,-205.9909"/>
</g>
<!-- CreateProjectComponent  -->
<g id="node6" class="node">
<title>CreateProjectComponent </title>
<polygon fill="#fb8072" stroke="#000000" points="615.5176,-252 454.4824,-252 454.4824,-216 615.5176,-216 615.5176,-252"/>
<text text-anchor="middle" x="535" y="-229.8" font-family="Times,serif" font-size="14.00" fill="#000000">CreateProjectComponent </text>
</g>
<!-- OrganizationSharedCompanyModule&#45;&gt;CreateProjectComponent  -->
<g id="edge5" class="edge">
<title>OrganizationSharedCompanyModule&#45;&gt;CreateProjectComponent </title>
<path fill="none" stroke="#000000" stroke-dasharray="5,2" d="M565.2677,-187.1061C565.2677,-187.1061 565.2677,-205.991 565.2677,-205.991"/>
<polygon fill="#000000" stroke="#000000" points="561.7678,-205.9909 565.2677,-215.991 568.7678,-205.991 561.7678,-205.9909"/>
</g>
<!-- AccountSharedAuthModule -->
<g id="node4" class="node">
<title>AccountSharedAuthModule</title>
<polygon fill="#8dd3c7" stroke="#000000" points="919.8459,-122 916.8459,-126 895.8459,-126 892.8459,-122 746.1541,-122 746.1541,-86 919.8459,-86 919.8459,-122"/>
<text text-anchor="middle" x="833" y="-99.8" font-family="Times,serif" font-size="14.00" fill="#000000">AccountSharedAuthModule</text>
</g>
<!-- AccountSharedAuthModule&#45;&gt;OrganizationSharedCompanyModule -->
<g id="edge3" class="edge">
<title>AccountSharedAuthModule&#45;&gt;OrganizationSharedCompanyModule</title>
<path fill="none" stroke="#000000" d="M745.8732,-104C737.0766,-104 731.3024,-104 731.3024,-104 731.3024,-104 731.3024,-140.8939 731.3024,-140.8939"/>
<polygon fill="#000000" stroke="#000000" points="727.8025,-140.8938 731.3024,-150.8939 734.8025,-140.8939 727.8025,-140.8938"/>
</g>
<!-- CompanyDataSource -->
<g id="node7" class="node">
<title>CompanyDataSource</title>
<ellipse fill="#fdb462" stroke="#000000" cx="628" cy="-104" rx="93.763" ry="18"/>
<text text-anchor="middle" x="628" y="-99.8" font-family="Times,serif" font-size="14.00" fill="#000000">CompanyDataSource</text>
</g>
<!-- CompanyDataSource&#45;&gt;OrganizationSharedCompanyModule -->
<g id="edge6" class="edge">
<title>CompanyDataSource&#45;&gt;OrganizationSharedCompanyModule</title>
<path fill="none" stroke="#000000" d="M628,-122.1061C628,-122.1061 628,-140.991 628,-140.991"/>
<polygon fill="#000000" stroke="#000000" points="624.5001,-140.9909 628,-150.991 631.5001,-140.991 624.5001,-140.9909"/>
</g>
<!-- CompanyService -->
<g id="node8" class="node">
<title>CompanyService</title>
<ellipse fill="#fdb462" stroke="#000000" cx="439" cy="-104" rx="77.5897" ry="18"/>
<text text-anchor="middle" x="439" y="-99.8" font-family="Times,serif" font-size="14.00" fill="#000000">CompanyService</text>
</g>
<!-- CompanyService&#45;&gt;OrganizationSharedCompanyModule -->
<g id="edge7" class="edge">
<title>CompanyService&#45;&gt;OrganizationSharedCompanyModule</title>
<path fill="none" stroke="#000000" d="M516.8508,-104C522.1587,-104 525.4567,-104 525.4567,-104 525.4567,-104 525.4567,-140.8939 525.4567,-140.8939"/>
<polygon fill="#000000" stroke="#000000" points="521.9568,-140.8938 525.4567,-150.8939 528.9568,-140.8939 521.9568,-140.8938"/>
</g>
<!-- ProjectDataSource -->
<g id="node9" class="node">
<title>ProjectDataSource</title>
<ellipse fill="#fdb462" stroke="#000000" cx="260" cy="-104" rx="83.3616" ry="18"/>
<text text-anchor="middle" x="260" y="-99.8" font-family="Times,serif" font-size="14.00" fill="#000000">ProjectDataSource</text>
</g>
<!-- ProjectDataSource&#45;&gt;OrganizationSharedCompanyModule -->
<g id="edge8" class="edge">
<title>ProjectDataSource&#45;&gt;OrganizationSharedCompanyModule</title>
<path fill="none" stroke="#000000" d="M260,-122.0225C260,-139.3734 260,-163 260,-163 260,-163 504.8361,-163 504.8361,-163"/>
<polygon fill="#000000" stroke="#000000" points="504.8361,-166.5001 514.8361,-163 504.8361,-159.5001 504.8361,-166.5001"/>
</g>
<!-- ProjectService -->
<g id="node10" class="node">
<title>ProjectService</title>
<ellipse fill="#fdb462" stroke="#000000" cx="91" cy="-104" rx="67.1888" ry="18"/>
<text text-anchor="middle" x="91" y="-99.8" font-family="Times,serif" font-size="14.00" fill="#000000">ProjectService</text>
</g>
<!-- ProjectService&#45;&gt;OrganizationSharedCompanyModule -->
<g id="edge9" class="edge">
<title>ProjectService&#45;&gt;OrganizationSharedCompanyModule</title>
<path fill="none" stroke="#000000" d="M91,-122.2843C91,-143.3211 91,-175 91,-175 91,-175 504.7723,-175 504.7723,-175"/>
<polygon fill="#000000" stroke="#000000" points="504.7723,-178.5001 514.7723,-175 504.7722,-171.5001 504.7723,-178.5001"/>
</g>
</g>
</svg>
