<?xml version="1.0" encoding="UTF-8" standalone="no"?>
<!DOCTYPE svg PUBLIC "-//W3C//DTD SVG 1.1//EN"
 "http://www.w3.org/Graphics/SVG/1.1/DTD/svg11.dtd">
<!-- Generated by graphviz version 2.40.1 (20161225.0304)
 -->
<!-- Title: dependencies Pages: 1 -->
<svg width="504pt" height="284pt"
 viewBox="0.00 0.00 504.00 284.00" xmlns="http://www.w3.org/2000/svg" xmlns:xlink="http://www.w3.org/1999/xlink">
<g id="graph0" class="graph" transform="scale(1 1) rotate(0) translate(4 280)">
<title>dependencies</title>
<polygon fill="#ffffff" stroke="transparent" points="-4,4 -4,-280 500,-280 500,4 -4,4"/>
<text text-anchor="start" x="227.0091" y="-42.4" font-family="sans-serif" font-weight="bold" font-size="14.00" fill="#000000">Legend</text>
<polygon fill="#ffffb3" stroke="transparent" points="14,-10 14,-30 34,-30 34,-10 14,-10"/>
<text text-anchor="start" x="37.629" y="-15.4" font-family="sans-serif" font-size="14.00" fill="#000000"> &#160;Declarations</text>
<polygon fill="#8dd3c7" stroke="transparent" points="127,-10 127,-30 147,-30 147,-10 127,-10"/>
<text text-anchor="start" x="150.7251" y="-15.4" font-family="sans-serif" font-size="14.00" fill="#000000"> &#160;Module</text>
<polygon fill="#80b1d3" stroke="transparent" points="213,-10 213,-30 233,-30 233,-10 213,-10"/>
<text text-anchor="start" x="236.7812" y="-15.4" font-family="sans-serif" font-size="14.00" fill="#000000"> &#160;Bootstrap</text>
<polygon fill="#fdb462" stroke="transparent" points="310,-10 310,-30 330,-30 330,-10 310,-10"/>
<text text-anchor="start" x="333.6732" y="-15.4" font-family="sans-serif" font-size="14.00" fill="#000000"> &#160;Providers</text>
<polygon fill="#fb8072" stroke="transparent" points="406,-10 406,-30 426,-30 426,-10 406,-10"/>
<text text-anchor="start" x="429.7258" y="-15.4" font-family="sans-serif" font-size="14.00" fill="#000000"> &#160;Exports</text>
<g id="clust1" class="cluster">
<title>cluster_AppServerModule</title>
<polygon fill="none" stroke="#000000" stroke-dasharray="1,5" points="111,-70 111,-268 385,-268 385,-70 111,-70"/>
</g>
<g id="clust2" class="cluster">
<title>cluster_AppServerModule_declarations</title>
<polygon fill="none" stroke="#000000" points="227,-78 227,-130 377,-130 377,-78 227,-78"/>
</g>
<g id="clust4" class="cluster">
<title>cluster_AppServerModule_imports</title>
<polygon fill="none" stroke="#000000" points="119,-78 119,-130 219,-130 219,-78 119,-78"/>
</g>
<g id="clust6" class="cluster">
<title>cluster_AppServerModule_bootstrap</title>
<polygon fill="none" stroke="#000000" points="179,-208 179,-260 303,-260 303,-208 179,-208"/>
</g>
<!-- AppShellComponent -->
<g id="node1" class="node">
<title>AppShellComponent</title>
<polygon fill="#ffffb3" stroke="#000000" points="369.2176,-122 234.7824,-122 234.7824,-86 369.2176,-86 369.2176,-122"/>
<text text-anchor="middle" x="302" y="-99.8" font-family="Times,serif" font-size="14.00" fill="#000000">AppShellComponent</text>
</g>
<!-- AppServerModule -->
<g id="node2" class="node">
<title>AppServerModule</title>
<polygon fill="#8dd3c7" stroke="#000000" points="301.1895,-187 298.1895,-191 277.1895,-191 274.1895,-187 180.8105,-187 180.8105,-151 301.1895,-151 301.1895,-187"/>
<text text-anchor="middle" x="241" y="-164.8" font-family="Times,serif" font-size="14.00" fill="#000000">AppServerModule</text>
</g>
<!-- AppShellComponent&#45;&gt;AppServerModule -->
<g id="edge1" class="edge">
<title>AppShellComponent&#45;&gt;AppServerModule</title>
<path fill="none" stroke="#000000" d="M267.993,-122.1061C267.993,-122.1061 267.993,-140.991 267.993,-140.991"/>
<polygon fill="#000000" stroke="#000000" points="264.4931,-140.9909 267.993,-150.991 271.4931,-140.991 264.4931,-140.9909"/>
</g>
<!-- AppComponent  -->
<g id="node4" class="node">
<title>AppComponent </title>
<polygon fill="#80b1d3" stroke="#000000" points="295.439,-252 186.561,-252 186.561,-216 295.439,-216 295.439,-252"/>
<text text-anchor="middle" x="241" y="-229.8" font-family="Times,serif" font-size="14.00" fill="#000000">AppComponent </text>
</g>
<!-- AppServerModule&#45;&gt;AppComponent  -->
<g id="edge3" class="edge">
<title>AppServerModule&#45;&gt;AppComponent </title>
<path fill="none" stroke="#000000" stroke-dasharray="1,5" d="M241,-187.1061C241,-187.1061 241,-205.991 241,-205.991"/>
<polygon fill="#000000" stroke="#000000" points="237.5001,-205.9909 241,-215.991 244.5001,-205.991 237.5001,-205.9909"/>
</g>
<!-- AppModule -->
<g id="node3" class="node">
<title>AppModule</title>
<polygon fill="#8dd3c7" stroke="#000000" points="210.6571,-122 207.6571,-126 186.6571,-126 183.6571,-122 127.3429,-122 127.3429,-86 210.6571,-86 210.6571,-122"/>
<text text-anchor="middle" x="169" y="-99.8" font-family="Times,serif" font-size="14.00" fill="#000000">AppModule</text>
</g>
<!-- AppModule&#45;&gt;AppServerModule -->
<g id="edge2" class="edge">
<title>AppModule&#45;&gt;AppServerModule</title>
<path fill="none" stroke="#000000" d="M195.8668,-122.1061C195.8668,-122.1061 195.8668,-140.991 195.8668,-140.991"/>
<polygon fill="#000000" stroke="#000000" points="192.3668,-140.9909 195.8668,-150.991 199.3668,-140.991 192.3668,-140.9909"/>
</g>
</g>
</svg>
