<?xml version="1.0" encoding="UTF-8" standalone="no"?>
<!DOCTYPE svg PUBLIC "-//W3C//DTD SVG 1.1//EN"
 "http://www.w3.org/Graphics/SVG/1.1/DTD/svg11.dtd">
<!-- Generated by graphviz version 2.40.1 (20161225.0304)
 -->
<!-- Title: dependencies Pages: 1 -->
<svg width="1283pt" height="284pt"
 viewBox="0.00 0.00 1283.00 284.00" xmlns="http://www.w3.org/2000/svg" xmlns:xlink="http://www.w3.org/1999/xlink">
<g id="graph0" class="graph" transform="scale(1 1) rotate(0) translate(4 280)">
<title>dependencies</title>
<polygon fill="#ffffff" stroke="transparent" points="-4,4 -4,-280 1279,-280 1279,4 -4,4"/>
<text text-anchor="start" x="616.5091" y="-42.4" font-family="sans-serif" font-weight="bold" font-size="14.00" fill="#000000">Legend</text>
<polygon fill="#ffffb3" stroke="transparent" points="403.5,-10 403.5,-30 423.5,-30 423.5,-10 403.5,-10"/>
<text text-anchor="start" x="427.129" y="-15.4" font-family="sans-serif" font-size="14.00" fill="#000000"> &#160;Declarations</text>
<polygon fill="#8dd3c7" stroke="transparent" points="516.5,-10 516.5,-30 536.5,-30 536.5,-10 516.5,-10"/>
<text text-anchor="start" x="540.2251" y="-15.4" font-family="sans-serif" font-size="14.00" fill="#000000"> &#160;Module</text>
<polygon fill="#80b1d3" stroke="transparent" points="602.5,-10 602.5,-30 622.5,-30 622.5,-10 602.5,-10"/>
<text text-anchor="start" x="626.2812" y="-15.4" font-family="sans-serif" font-size="14.00" fill="#000000"> &#160;Bootstrap</text>
<polygon fill="#fdb462" stroke="transparent" points="699.5,-10 699.5,-30 719.5,-30 719.5,-10 699.5,-10"/>
<text text-anchor="start" x="723.1732" y="-15.4" font-family="sans-serif" font-size="14.00" fill="#000000"> &#160;Providers</text>
<polygon fill="#fb8072" stroke="transparent" points="795.5,-10 795.5,-30 815.5,-30 815.5,-10 795.5,-10"/>
<text text-anchor="start" x="819.2258" y="-15.4" font-family="sans-serif" font-size="14.00" fill="#000000"> &#160;Exports</text>
<g id="clust1" class="cluster">
<title>cluster_FilterAsyncTableModule</title>
<polygon fill="none" stroke="#000000" stroke-dasharray="1,5" points="8,-70 8,-268 1267,-268 1267,-70 8,-70"/>
</g>
<g id="clust2" class="cluster">
<title>cluster_FilterAsyncTableModule_declarations</title>
<polygon fill="none" stroke="#000000" points="608,-78 608,-130 1259,-130 1259,-78 608,-78"/>
</g>
<g id="clust7" class="cluster">
<title>cluster_FilterAsyncTableModule_imports</title>
<polygon fill="none" stroke="#000000" points="408,-78 408,-130 600,-130 600,-78 408,-78"/>
</g>
<g id="clust8" class="cluster">
<title>cluster_FilterAsyncTableModule_exports</title>
<polygon fill="none" stroke="#000000" points="471,-208 471,-260 941,-260 941,-208 471,-208"/>
</g>
<g id="clust10" class="cluster">
<title>cluster_FilterAsyncTableModule_providers</title>
<polygon fill="none" stroke="#000000" points="16,-78 16,-130 400,-130 400,-78 16,-78"/>
</g>
<!-- CondOperatorReadablePipe -->
<g id="node1" class="node">
<title>CondOperatorReadablePipe</title>
<polygon fill="#ffffb3" stroke="#000000" points="1250.5576,-122 1077.4424,-122 1077.4424,-86 1250.5576,-86 1250.5576,-122"/>
<text text-anchor="middle" x="1164" y="-99.8" font-family="Times,serif" font-size="14.00" fill="#000000">CondOperatorReadablePipe</text>
</g>
<!-- FilterAsyncTableModule -->
<g id="node5" class="node">
<title>FilterAsyncTableModule</title>
<polygon fill="#8dd3c7" stroke="#000000" points="753.5183,-187 750.5183,-191 729.5183,-191 726.5183,-187 596.4817,-187 596.4817,-151 753.5183,-151 753.5183,-187"/>
<text text-anchor="middle" x="675" y="-164.8" font-family="Times,serif" font-size="14.00" fill="#000000">FilterAsyncTableModule</text>
</g>
<!-- CondOperatorReadablePipe&#45;&gt;FilterAsyncTableModule -->
<g id="edge1" class="edge">
<title>CondOperatorReadablePipe&#45;&gt;FilterAsyncTableModule</title>
<path fill="none" stroke="#000000" d="M1164,-122.2843C1164,-143.3211 1164,-175 1164,-175 1164,-175 763.5663,-175 763.5663,-175"/>
<polygon fill="#000000" stroke="#000000" points="763.5663,-171.5001 753.5663,-175 763.5663,-178.5001 763.5663,-171.5001"/>
</g>
<!-- FilterAsyncTableComponent -->
<g id="node2" class="node">
<title>FilterAsyncTableComponent</title>
<polygon fill="#ffffb3" stroke="#000000" points="1059.8005,-122 880.1995,-122 880.1995,-86 1059.8005,-86 1059.8005,-122"/>
<text text-anchor="middle" x="970" y="-99.8" font-family="Times,serif" font-size="14.00" fill="#000000">FilterAsyncTableComponent</text>
</g>
<!-- FilterAsyncTableComponent&#45;&gt;FilterAsyncTableModule -->
<g id="edge2" class="edge">
<title>FilterAsyncTableComponent&#45;&gt;FilterAsyncTableModule</title>
<path fill="none" stroke="#000000" d="M906.875,-122.0225C906.875,-139.3734 906.875,-163 906.875,-163 906.875,-163 763.8258,-163 763.8258,-163"/>
<polygon fill="#000000" stroke="#000000" points="763.8259,-159.5001 753.8258,-163 763.8258,-166.5001 763.8259,-159.5001"/>
</g>
<!-- FilterComponent -->
<g id="node3" class="node">
<title>FilterComponent</title>
<polygon fill="#ffffb3" stroke="#000000" points="862.6625,-122 751.3375,-122 751.3375,-86 862.6625,-86 862.6625,-122"/>
<text text-anchor="middle" x="807" y="-99.8" font-family="Times,serif" font-size="14.00" fill="#000000">FilterComponent</text>
</g>
<!-- FilterComponent&#45;&gt;FilterAsyncTableModule -->
<g id="edge3" class="edge">
<title>FilterComponent&#45;&gt;FilterAsyncTableModule</title>
<path fill="none" stroke="#000000" d="M751.0786,-104C745.7945,-104 742.3611,-104 742.3611,-104 742.3611,-104 742.3611,-140.8939 742.3611,-140.8939"/>
<polygon fill="#000000" stroke="#000000" points="738.8612,-140.8938 742.3611,-150.8939 745.8612,-140.8939 738.8612,-140.8938"/>
</g>
<!-- FiltersComponent -->
<g id="node4" class="node">
<title>FiltersComponent</title>
<polygon fill="#ffffb3" stroke="#000000" points="733.6066,-122 616.3934,-122 616.3934,-86 733.6066,-86 733.6066,-122"/>
<text text-anchor="middle" x="675" y="-99.8" font-family="Times,serif" font-size="14.00" fill="#000000">FiltersComponent</text>
</g>
<!-- FiltersComponent&#45;&gt;FilterAsyncTableModule -->
<g id="edge4" class="edge">
<title>FiltersComponent&#45;&gt;FilterAsyncTableModule</title>
<path fill="none" stroke="#000000" d="M675,-122.1061C675,-122.1061 675,-140.991 675,-140.991"/>
<polygon fill="#000000" stroke="#000000" points="671.5001,-140.9909 675,-150.991 678.5001,-140.991 671.5001,-140.9909"/>
</g>
<!-- FilterAsyncTableComponent  -->
<g id="node7" class="node">
<title>FilterAsyncTableComponent </title>
<polygon fill="#fb8072" stroke="#000000" points="933.3003,-252 750.6997,-252 750.6997,-216 933.3003,-216 933.3003,-252"/>
<text text-anchor="middle" x="842" y="-229.8" font-family="Times,serif" font-size="14.00" fill="#000000">FilterAsyncTableComponent </text>
</g>
<!-- FilterAsyncTableModule&#45;&gt;FilterAsyncTableComponent  -->
<g id="edge6" class="edge">
<title>FilterAsyncTableModule&#45;&gt;FilterAsyncTableComponent </title>
<path fill="none" stroke="#000000" stroke-dasharray="5,2" d="M741.5904,-187.1061C741.5904,-206.3391 741.5904,-234 741.5904,-234 741.5904,-234 742.4815,-234 742.4815,-234"/>
<polygon fill="#000000" stroke="#000000" points="740.5012,-237.5001 750.5011,-234 740.5011,-230.5001 740.5012,-237.5001"/>
</g>
<!-- FilterComponent  -->
<g id="node8" class="node">
<title>FilterComponent </title>
<polygon fill="#fb8072" stroke="#000000" points="732.6621,-252 617.3379,-252 617.3379,-216 732.6621,-216 732.6621,-252"/>
<text text-anchor="middle" x="675" y="-229.8" font-family="Times,serif" font-size="14.00" fill="#000000">FilterComponent </text>
</g>
<!-- FilterAsyncTableModule&#45;&gt;FilterComponent  -->
<g id="edge7" class="edge">
<title>FilterAsyncTableModule&#45;&gt;FilterComponent </title>
<path fill="none" stroke="#000000" stroke-dasharray="5,2" d="M675,-187.1061C675,-187.1061 675,-205.991 675,-205.991"/>
<polygon fill="#000000" stroke="#000000" points="671.5001,-205.9909 675,-215.991 678.5001,-205.991 671.5001,-205.9909"/>
</g>
<!-- FiltersComponent  -->
<g id="node9" class="node">
<title>FiltersComponent </title>
<polygon fill="#fb8072" stroke="#000000" points="599.1072,-252 478.8928,-252 478.8928,-216 599.1072,-216 599.1072,-252"/>
<text text-anchor="middle" x="539" y="-229.8" font-family="Times,serif" font-size="14.00" fill="#000000">FiltersComponent </text>
</g>
<!-- FilterAsyncTableModule&#45;&gt;FiltersComponent  -->
<g id="edge8" class="edge">
<title>FilterAsyncTableModule&#45;&gt;FiltersComponent </title>
<path fill="none" stroke="#000000" stroke-dasharray="5,2" d="M608.3611,-187.1061C608.3611,-206.3391 608.3611,-234 608.3611,-234 608.3611,-234 607.4544,-234 607.4544,-234"/>
<polygon fill="#000000" stroke="#000000" points="609.2934,-230.5001 599.2934,-234 609.2933,-237.5001 609.2934,-230.5001"/>
</g>
<!-- UiKitFloatingDialogModule -->
<g id="node6" class="node">
<title>UiKitFloatingDialogModule</title>
<polygon fill="#8dd3c7" stroke="#000000" points="592.2063,-122 589.2063,-126 568.2063,-126 565.2063,-122 415.7937,-122 415.7937,-86 592.2063,-86 592.2063,-122"/>
<text text-anchor="middle" x="504" y="-99.8" font-family="Times,serif" font-size="14.00" fill="#000000">UiKitFloatingDialogModule</text>
</g>
<!-- UiKitFloatingDialogModule&#45;&gt;FilterAsyncTableModule -->
<g id="edge5" class="edge">
<title>UiKitFloatingDialogModule&#45;&gt;FilterAsyncTableModule</title>
<path fill="none" stroke="#000000" d="M592.1135,-104C600.722,-104 606.3439,-104 606.3439,-104 606.3439,-104 606.3439,-140.8939 606.3439,-140.8939"/>
<polygon fill="#000000" stroke="#000000" points="602.844,-140.8938 606.3439,-150.8939 609.844,-140.8939 602.844,-140.8938"/>
</g>
<!-- FilterAsyncService -->
<g id="node10" class="node">
<title>FilterAsyncService</title>
<ellipse fill="#fdb462" stroke="#000000" cx="306" cy="-104" rx="85.6667" ry="18"/>
<text text-anchor="middle" x="306" y="-99.8" font-family="Times,serif" font-size="14.00" fill="#000000">FilterAsyncService</text>
</g>
<!-- FilterAsyncService&#45;&gt;FilterAsyncTableModule -->
<g id="edge9" class="edge">
<title>FilterAsyncService&#45;&gt;FilterAsyncTableModule</title>
<path fill="none" stroke="#000000" d="M306,-122.0225C306,-139.3734 306,-163 306,-163 306,-163 586.2928,-163 586.2928,-163"/>
<polygon fill="#000000" stroke="#000000" points="586.2929,-166.5001 596.2928,-163 586.2928,-159.5001 586.2929,-166.5001"/>
</g>
<!-- FiltersAsyncService -->
<g id="node11" class="node">
<title>FiltersAsyncService</title>
<ellipse fill="#fdb462" stroke="#000000" cx="113" cy="-104" rx="89.178" ry="18"/>
<text text-anchor="middle" x="113" y="-99.8" font-family="Times,serif" font-size="14.00" fill="#000000">FiltersAsyncService</text>
</g>
<!-- FiltersAsyncService&#45;&gt;FilterAsyncTableModule -->
<g id="edge10" class="edge">
<title>FiltersAsyncService&#45;&gt;FilterAsyncTableModule</title>
<path fill="none" stroke="#000000" d="M113,-122.2843C113,-143.3211 113,-175 113,-175 113,-175 586.2646,-175 586.2646,-175"/>
<polygon fill="#000000" stroke="#000000" points="586.2646,-178.5001 596.2646,-175 586.2645,-171.5001 586.2646,-178.5001"/>
</g>
</g>
</svg>
