<?xml version="1.0" encoding="UTF-8" standalone="no"?>
<!DOCTYPE svg PUBLIC "-//W3C//DTD SVG 1.1//EN"
 "http://www.w3.org/Graphics/SVG/1.1/DTD/svg11.dtd">
<!-- Generated by graphviz version 2.40.1 (20161225.0304)
 -->
<!-- Title: dependencies Pages: 1 -->
<svg width="540pt" height="284pt"
 viewBox="0.00 0.00 540.00 284.00" xmlns="http://www.w3.org/2000/svg" xmlns:xlink="http://www.w3.org/1999/xlink">
<g id="graph0" class="graph" transform="scale(1 1) rotate(0) translate(4 280)">
<title>dependencies</title>
<polygon fill="#ffffff" stroke="transparent" points="-4,4 -4,-280 536,-280 536,4 -4,4"/>
<text text-anchor="start" x="245.0091" y="-42.4" font-family="sans-serif" font-weight="bold" font-size="14.00" fill="#000000">Legend</text>
<polygon fill="#ffffb3" stroke="transparent" points="32,-10 32,-30 52,-30 52,-10 32,-10"/>
<text text-anchor="start" x="55.629" y="-15.4" font-family="sans-serif" font-size="14.00" fill="#000000"> &#160;Declarations</text>
<polygon fill="#8dd3c7" stroke="transparent" points="145,-10 145,-30 165,-30 165,-10 145,-10"/>
<text text-anchor="start" x="168.7251" y="-15.4" font-family="sans-serif" font-size="14.00" fill="#000000"> &#160;Module</text>
<polygon fill="#80b1d3" stroke="transparent" points="231,-10 231,-30 251,-30 251,-10 231,-10"/>
<text text-anchor="start" x="254.7812" y="-15.4" font-family="sans-serif" font-size="14.00" fill="#000000"> &#160;Bootstrap</text>
<polygon fill="#fdb462" stroke="transparent" points="328,-10 328,-30 348,-30 348,-10 328,-10"/>
<text text-anchor="start" x="351.6732" y="-15.4" font-family="sans-serif" font-size="14.00" fill="#000000"> &#160;Providers</text>
<polygon fill="#fb8072" stroke="transparent" points="424,-10 424,-30 444,-30 444,-10 424,-10"/>
<text text-anchor="start" x="447.7258" y="-15.4" font-family="sans-serif" font-size="14.00" fill="#000000"> &#160;Exports</text>
<g id="clust1" class="cluster">
<title>cluster_AppModule</title>
<polygon fill="none" stroke="#000000" stroke-dasharray="1,5" points="8,-70 8,-268 524,-268 524,-70 8,-70"/>
</g>
<g id="clust2" class="cluster">
<title>cluster_AppModule_declarations</title>
<polygon fill="none" stroke="#000000" points="394,-78 394,-130 516,-130 516,-78 394,-78"/>
</g>
<g id="clust4" class="cluster">
<title>cluster_AppModule_imports</title>
<polygon fill="none" stroke="#000000" points="196,-78 196,-130 386,-130 386,-78 196,-78"/>
</g>
<g id="clust6" class="cluster">
<title>cluster_AppModule_bootstrap</title>
<polygon fill="none" stroke="#000000" points="229,-208 229,-260 353,-260 353,-208 229,-208"/>
</g>
<g id="clust7" class="cluster">
<title>cluster_AppModule_providers</title>
<polygon fill="none" stroke="#000000" points="16,-78 16,-130 188,-130 188,-78 16,-78"/>
</g>
<!-- AppComponent -->
<g id="node1" class="node">
<title>AppComponent</title>
<polygon fill="#ffffb3" stroke="#000000" points="507.9399,-122 402.0601,-122 402.0601,-86 507.9399,-86 507.9399,-122"/>
<text text-anchor="middle" x="455" y="-99.8" font-family="Times,serif" font-size="14.00" fill="#000000">AppComponent</text>
</g>
<!-- AppModule -->
<g id="node2" class="node">
<title>AppModule</title>
<polygon fill="#8dd3c7" stroke="#000000" points="332.6571,-187 329.6571,-191 308.6571,-191 305.6571,-187 249.3429,-187 249.3429,-151 332.6571,-151 332.6571,-187"/>
<text text-anchor="middle" x="291" y="-164.8" font-family="Times,serif" font-size="14.00" fill="#000000">AppModule</text>
</g>
<!-- AppComponent&#45;&gt;AppModule -->
<g id="edge1" class="edge">
<title>AppComponent&#45;&gt;AppModule</title>
<path fill="none" stroke="#000000" d="M455,-122.1061C455,-141.3391 455,-169 455,-169 455,-169 342.8085,-169 342.8085,-169"/>
<polygon fill="#000000" stroke="#000000" points="342.8085,-165.5001 332.8085,-169 342.8084,-172.5001 342.8085,-165.5001"/>
</g>
<!-- AppComponent  -->
<g id="node4" class="node">
<title>AppComponent </title>
<polygon fill="#80b1d3" stroke="#000000" points="345.439,-252 236.561,-252 236.561,-216 345.439,-216 345.439,-252"/>
<text text-anchor="middle" x="291" y="-229.8" font-family="Times,serif" font-size="14.00" fill="#000000">AppComponent </text>
</g>
<!-- AppModule&#45;&gt;AppComponent  -->
<g id="edge3" class="edge">
<title>AppModule&#45;&gt;AppComponent </title>
<path fill="none" stroke="#000000" stroke-dasharray="1,5" d="M291,-187.1061C291,-187.1061 291,-205.991 291,-205.991"/>
<polygon fill="#000000" stroke="#000000" points="287.5001,-205.9909 291,-215.991 294.5001,-205.991 287.5001,-205.9909"/>
</g>
<!-- AccountSharedAuthModule -->
<g id="node3" class="node">
<title>AccountSharedAuthModule</title>
<polygon fill="#8dd3c7" stroke="#000000" points="377.8459,-122 374.8459,-126 353.8459,-126 350.8459,-122 204.1541,-122 204.1541,-86 377.8459,-86 377.8459,-122"/>
<text text-anchor="middle" x="291" y="-99.8" font-family="Times,serif" font-size="14.00" fill="#000000">AccountSharedAuthModule</text>
</g>
<!-- AccountSharedAuthModule&#45;&gt;AppModule -->
<g id="edge2" class="edge">
<title>AccountSharedAuthModule&#45;&gt;AppModule</title>
<path fill="none" stroke="#000000" d="M291,-122.1061C291,-122.1061 291,-140.991 291,-140.991"/>
<polygon fill="#000000" stroke="#000000" points="287.5001,-140.9909 291,-150.991 294.5001,-140.991 287.5001,-140.9909"/>
</g>
<!-- TokenInterceptor -->
<g id="node5" class="node">
<title>TokenInterceptor</title>
<ellipse fill="#fdb462" stroke="#000000" cx="102" cy="-104" rx="78.1308" ry="18"/>
<text text-anchor="middle" x="102" y="-99.8" font-family="Times,serif" font-size="14.00" fill="#000000">TokenInterceptor</text>
</g>
<!-- TokenInterceptor&#45;&gt;AppModule -->
<g id="edge4" class="edge">
<title>TokenInterceptor&#45;&gt;AppModule</title>
<path fill="none" stroke="#000000" d="M102,-122.1061C102,-141.3391 102,-169 102,-169 102,-169 239.0548,-169 239.0548,-169"/>
<polygon fill="#000000" stroke="#000000" points="239.0548,-172.5001 249.0548,-169 239.0547,-165.5001 239.0548,-172.5001"/>
</g>
</g>
</svg>
