<?xml version="1.0" encoding="UTF-8" standalone="no"?>
<!DOCTYPE svg PUBLIC "-//W3C//DTD SVG 1.1//EN"
 "http://www.w3.org/Graphics/SVG/1.1/DTD/svg11.dtd">
<!-- Generated by graphviz version 2.40.1 (20161225.0304)
 -->
<!-- Title: dependencies Pages: 1 -->
<svg width="1059pt" height="284pt"
 viewBox="0.00 0.00 1059.00 284.00" xmlns="http://www.w3.org/2000/svg" xmlns:xlink="http://www.w3.org/1999/xlink">
<g id="graph0" class="graph" transform="scale(1 1) rotate(0) translate(4 280)">
<title>dependencies</title>
<polygon fill="#ffffff" stroke="transparent" points="-4,4 -4,-280 1055,-280 1055,4 -4,4"/>
<text text-anchor="start" x="504.5091" y="-42.4" font-family="sans-serif" font-weight="bold" font-size="14.00" fill="#000000">Legend</text>
<polygon fill="#ffffb3" stroke="transparent" points="291.5,-10 291.5,-30 311.5,-30 311.5,-10 291.5,-10"/>
<text text-anchor="start" x="315.129" y="-15.4" font-family="sans-serif" font-size="14.00" fill="#000000"> &#160;Declarations</text>
<polygon fill="#8dd3c7" stroke="transparent" points="404.5,-10 404.5,-30 424.5,-30 424.5,-10 404.5,-10"/>
<text text-anchor="start" x="428.2251" y="-15.4" font-family="sans-serif" font-size="14.00" fill="#000000"> &#160;Module</text>
<polygon fill="#80b1d3" stroke="transparent" points="490.5,-10 490.5,-30 510.5,-30 510.5,-10 490.5,-10"/>
<text text-anchor="start" x="514.2812" y="-15.4" font-family="sans-serif" font-size="14.00" fill="#000000"> &#160;Bootstrap</text>
<polygon fill="#fdb462" stroke="transparent" points="587.5,-10 587.5,-30 607.5,-30 607.5,-10 587.5,-10"/>
<text text-anchor="start" x="611.1732" y="-15.4" font-family="sans-serif" font-size="14.00" fill="#000000"> &#160;Providers</text>
<polygon fill="#fb8072" stroke="transparent" points="683.5,-10 683.5,-30 703.5,-30 703.5,-10 683.5,-10"/>
<text text-anchor="start" x="707.2258" y="-15.4" font-family="sans-serif" font-size="14.00" fill="#000000"> &#160;Exports</text>
<g id="clust1" class="cluster">
<title>cluster_UiKitFloatingDialogModule</title>
<polygon fill="none" stroke="#000000" stroke-dasharray="1,5" points="8,-70 8,-268 1043,-268 1043,-70 8,-70"/>
</g>
<g id="clust2" class="cluster">
<title>cluster_UiKitFloatingDialogModule_declarations</title>
<polygon fill="none" stroke="#000000" points="172,-78 172,-130 1035,-130 1035,-78 172,-78"/>
</g>
<g id="clust9" class="cluster">
<title>cluster_UiKitFloatingDialogModule_exports</title>
<polygon fill="none" stroke="#000000" points="360,-208 360,-260 688,-260 688,-208 360,-208"/>
</g>
<g id="clust11" class="cluster">
<title>cluster_UiKitFloatingDialogModule_providers</title>
<polygon fill="none" stroke="#000000" points="16,-78 16,-130 164,-130 164,-78 16,-78"/>
</g>
<!-- DialogAlertComponent -->
<g id="node1" class="node">
<title>DialogAlertComponent</title>
<polygon fill="#ffffb3" stroke="#000000" points="1027.1979,-122 878.8021,-122 878.8021,-86 1027.1979,-86 1027.1979,-122"/>
<text text-anchor="middle" x="953" y="-99.8" font-family="Times,serif" font-size="14.00" fill="#000000">DialogAlertComponent</text>
</g>
<!-- UiKitFloatingDialogModule -->
<g id="node6" class="node">
<title>UiKitFloatingDialogModule</title>
<polygon fill="#8dd3c7" stroke="#000000" points="615.2063,-187 612.2063,-191 591.2063,-191 588.2063,-187 438.7937,-187 438.7937,-151 615.2063,-151 615.2063,-187"/>
<text text-anchor="middle" x="527" y="-164.8" font-family="Times,serif" font-size="14.00" fill="#000000">UiKitFloatingDialogModule</text>
</g>
<!-- DialogAlertComponent&#45;&gt;UiKitFloatingDialogModule -->
<g id="edge1" class="edge">
<title>DialogAlertComponent&#45;&gt;UiKitFloatingDialogModule</title>
<path fill="none" stroke="#000000" d="M953,-122.2843C953,-143.3211 953,-175 953,-175 953,-175 625.2675,-175 625.2675,-175"/>
<polygon fill="#000000" stroke="#000000" points="625.2675,-171.5001 615.2675,-175 625.2674,-178.5001 625.2675,-171.5001"/>
</g>
<!-- DialogCloseDirective -->
<g id="node2" class="node">
<title>DialogCloseDirective</title>
<polygon fill="#ffffb3" stroke="#000000" points="861.0716,-122 722.9284,-122 722.9284,-86 861.0716,-86 861.0716,-122"/>
<text text-anchor="middle" x="792" y="-99.8" font-family="Times,serif" font-size="14.00" fill="#000000">DialogCloseDirective</text>
</g>
<!-- DialogCloseDirective&#45;&gt;UiKitFloatingDialogModule -->
<g id="edge2" class="edge">
<title>DialogCloseDirective&#45;&gt;UiKitFloatingDialogModule</title>
<path fill="none" stroke="#000000" d="M792,-122.0225C792,-139.3734 792,-163 792,-163 792,-163 625.2412,-163 625.2412,-163"/>
<polygon fill="#000000" stroke="#000000" points="625.2412,-159.5001 615.2412,-163 625.2411,-166.5001 625.2412,-159.5001"/>
</g>
<!-- DialogConfirmComponent -->
<g id="node3" class="node">
<title>DialogConfirmComponent</title>
<polygon fill="#ffffb3" stroke="#000000" points="705.3738,-122 538.6262,-122 538.6262,-86 705.3738,-86 705.3738,-122"/>
<text text-anchor="middle" x="622" y="-99.8" font-family="Times,serif" font-size="14.00" fill="#000000">DialogConfirmComponent</text>
</g>
<!-- DialogConfirmComponent&#45;&gt;UiKitFloatingDialogModule -->
<g id="edge3" class="edge">
<title>DialogConfirmComponent&#45;&gt;UiKitFloatingDialogModule</title>
<path fill="none" stroke="#000000" d="M576.8331,-122.1061C576.8331,-122.1061 576.8331,-140.991 576.8331,-140.991"/>
<polygon fill="#000000" stroke="#000000" points="573.3332,-140.9909 576.8331,-150.991 580.3332,-140.991 573.3332,-140.9909"/>
</g>
<!-- DialogContainerComponent -->
<g id="node4" class="node">
<title>DialogContainerComponent</title>
<polygon fill="#ffffb3" stroke="#000000" points="520.1428,-122 345.8572,-122 345.8572,-86 520.1428,-86 520.1428,-122"/>
<text text-anchor="middle" x="433" y="-99.8" font-family="Times,serif" font-size="14.00" fill="#000000">DialogContainerComponent</text>
</g>
<!-- DialogContainerComponent&#45;&gt;UiKitFloatingDialogModule -->
<g id="edge4" class="edge">
<title>DialogContainerComponent&#45;&gt;UiKitFloatingDialogModule</title>
<path fill="none" stroke="#000000" d="M479.6091,-122.1061C479.6091,-122.1061 479.6091,-140.991 479.6091,-140.991"/>
<polygon fill="#000000" stroke="#000000" points="476.1091,-140.9909 479.6091,-150.991 483.1091,-140.991 476.1091,-140.9909"/>
</g>
<!-- DialogShellComponent -->
<g id="node5" class="node">
<title>DialogShellComponent</title>
<polygon fill="#ffffb3" stroke="#000000" points="328.2134,-122 179.7866,-122 179.7866,-86 328.2134,-86 328.2134,-122"/>
<text text-anchor="middle" x="254" y="-99.8" font-family="Times,serif" font-size="14.00" fill="#000000">DialogShellComponent</text>
</g>
<!-- DialogShellComponent&#45;&gt;UiKitFloatingDialogModule -->
<g id="edge5" class="edge">
<title>DialogShellComponent&#45;&gt;UiKitFloatingDialogModule</title>
<path fill="none" stroke="#000000" d="M254,-122.0225C254,-139.3734 254,-163 254,-163 254,-163 428.7417,-163 428.7417,-163"/>
<polygon fill="#000000" stroke="#000000" points="428.7418,-166.5001 438.7417,-163 428.7417,-159.5001 428.7418,-166.5001"/>
</g>
<!-- DialogCloseDirective  -->
<g id="node7" class="node">
<title>DialogCloseDirective </title>
<polygon fill="#fb8072" stroke="#000000" points="679.5722,-252 538.4278,-252 538.4278,-216 679.5722,-216 679.5722,-252"/>
<text text-anchor="middle" x="609" y="-229.8" font-family="Times,serif" font-size="14.00" fill="#000000">DialogCloseDirective </text>
</g>
<!-- UiKitFloatingDialogModule&#45;&gt;DialogCloseDirective  -->
<g id="edge6" class="edge">
<title>UiKitFloatingDialogModule&#45;&gt;DialogCloseDirective </title>
<path fill="none" stroke="#000000" stroke-dasharray="5,2" d="M576.6587,-187.1061C576.6587,-187.1061 576.6587,-205.991 576.6587,-205.991"/>
<polygon fill="#000000" stroke="#000000" points="573.1587,-205.9909 576.6587,-215.991 580.1587,-205.991 573.1587,-205.9909"/>
</g>
<!-- DialogShellComponent  -->
<g id="node8" class="node">
<title>DialogShellComponent </title>
<polygon fill="#fb8072" stroke="#000000" points="519.7135,-252 368.2865,-252 368.2865,-216 519.7135,-216 519.7135,-252"/>
<text text-anchor="middle" x="444" y="-229.8" font-family="Times,serif" font-size="14.00" fill="#000000">DialogShellComponent </text>
</g>
<!-- UiKitFloatingDialogModule&#45;&gt;DialogShellComponent  -->
<g id="edge7" class="edge">
<title>UiKitFloatingDialogModule&#45;&gt;DialogShellComponent </title>
<path fill="none" stroke="#000000" stroke-dasharray="5,2" d="M479.3768,-187.1061C479.3768,-187.1061 479.3768,-205.991 479.3768,-205.991"/>
<polygon fill="#000000" stroke="#000000" points="475.8768,-205.9909 479.3768,-215.991 482.8768,-205.991 475.8768,-205.9909"/>
</g>
<!-- DialogService -->
<g id="node9" class="node">
<title>DialogService</title>
<ellipse fill="#fdb462" stroke="#000000" cx="90" cy="-104" rx="66.0492" ry="18"/>
<text text-anchor="middle" x="90" y="-99.8" font-family="Times,serif" font-size="14.00" fill="#000000">DialogService</text>
</g>
<!-- DialogService&#45;&gt;UiKitFloatingDialogModule -->
<g id="edge8" class="edge">
<title>DialogService&#45;&gt;UiKitFloatingDialogModule</title>
<path fill="none" stroke="#000000" d="M90,-122.2843C90,-143.3211 90,-175 90,-175 90,-175 428.8295,-175 428.8295,-175"/>
<polygon fill="#000000" stroke="#000000" points="428.8295,-178.5001 438.8295,-175 428.8295,-171.5001 428.8295,-178.5001"/>
</g>
</g>
</svg>
