<?xml version="1.0" encoding="UTF-8" standalone="no"?>
<!DOCTYPE svg PUBLIC "-//W3C//DTD SVG 1.1//EN"
 "http://www.w3.org/Graphics/SVG/1.1/DTD/svg11.dtd">
<!-- Generated by graphviz version 2.40.1 (20161225.0304)
 -->
<!-- Title: dependencies Pages: 1 -->
<svg width="1233pt" height="284pt"
 viewBox="0.00 0.00 1233.00 284.00" xmlns="http://www.w3.org/2000/svg" xmlns:xlink="http://www.w3.org/1999/xlink">
<g id="graph0" class="graph" transform="scale(1 1) rotate(0) translate(4 280)">
<title>dependencies</title>
<polygon fill="#ffffff" stroke="transparent" points="-4,4 -4,-280 1229,-280 1229,4 -4,4"/>
<text text-anchor="start" x="591.5091" y="-42.4" font-family="sans-serif" font-weight="bold" font-size="14.00" fill="#000000">Legend</text>
<polygon fill="#ffffb3" stroke="transparent" points="378.5,-10 378.5,-30 398.5,-30 398.5,-10 378.5,-10"/>
<text text-anchor="start" x="402.129" y="-15.4" font-family="sans-serif" font-size="14.00" fill="#000000"> &#160;Declarations</text>
<polygon fill="#8dd3c7" stroke="transparent" points="491.5,-10 491.5,-30 511.5,-30 511.5,-10 491.5,-10"/>
<text text-anchor="start" x="515.2251" y="-15.4" font-family="sans-serif" font-size="14.00" fill="#000000"> &#160;Module</text>
<polygon fill="#80b1d3" stroke="transparent" points="577.5,-10 577.5,-30 597.5,-30 597.5,-10 577.5,-10"/>
<text text-anchor="start" x="601.2812" y="-15.4" font-family="sans-serif" font-size="14.00" fill="#000000"> &#160;Bootstrap</text>
<polygon fill="#fdb462" stroke="transparent" points="674.5,-10 674.5,-30 694.5,-30 694.5,-10 674.5,-10"/>
<text text-anchor="start" x="698.1732" y="-15.4" font-family="sans-serif" font-size="14.00" fill="#000000"> &#160;Providers</text>
<polygon fill="#fb8072" stroke="transparent" points="770.5,-10 770.5,-30 790.5,-30 790.5,-10 770.5,-10"/>
<text text-anchor="start" x="794.2258" y="-15.4" font-family="sans-serif" font-size="14.00" fill="#000000"> &#160;Exports</text>
<g id="clust1" class="cluster">
<title>cluster_UiKitFloatingDialogModule</title>
<polygon fill="none" stroke="#000000" stroke-dasharray="1,5" points="8,-70 8,-268 1217,-268 1217,-70 8,-70"/>
</g>
<g id="clust2" class="cluster">
<title>cluster_UiKitFloatingDialogModule_declarations</title>
<polygon fill="none" stroke="#000000" points="172,-78 172,-130 1209,-130 1209,-78 172,-78"/>
</g>
<g id="clust10" class="cluster">
<title>cluster_UiKitFloatingDialogModule_exports</title>
<polygon fill="none" stroke="#000000" points="349,-208 349,-260 855,-260 855,-208 349,-208"/>
</g>
<g id="clust12" class="cluster">
<title>cluster_UiKitFloatingDialogModule_providers</title>
<polygon fill="none" stroke="#000000" points="16,-78 16,-130 164,-130 164,-78 16,-78"/>
</g>
<!-- DialogAlertComponent -->
<g id="node1" class="node">
<title>DialogAlertComponent</title>
<polygon fill="#ffffb3" stroke="#000000" points="1201.1979,-122 1052.8021,-122 1052.8021,-86 1201.1979,-86 1201.1979,-122"/>
<text text-anchor="middle" x="1127" y="-99.8" font-family="Times,serif" font-size="14.00" fill="#000000">DialogAlertComponent</text>
</g>
<!-- UiKitFloatingDialogModule -->
<g id="node7" class="node">
<title>UiKitFloatingDialogModule</title>
<polygon fill="#8dd3c7" stroke="#000000" points="695.2063,-187 692.2063,-191 671.2063,-191 668.2063,-187 518.7937,-187 518.7937,-151 695.2063,-151 695.2063,-187"/>
<text text-anchor="middle" x="607" y="-164.8" font-family="Times,serif" font-size="14.00" fill="#000000">UiKitFloatingDialogModule</text>
</g>
<!-- DialogAlertComponent&#45;&gt;UiKitFloatingDialogModule -->
<g id="edge1" class="edge">
<title>DialogAlertComponent&#45;&gt;UiKitFloatingDialogModule</title>
<path fill="none" stroke="#000000" d="M1127,-122.1289C1127,-142.5724 1127,-173 1127,-173 1127,-173 705.2109,-173 705.2109,-173"/>
<polygon fill="#000000" stroke="#000000" points="705.2109,-169.5001 695.2109,-173 705.2109,-176.5001 705.2109,-169.5001"/>
</g>
<!-- DialogCloseDirective -->
<g id="node2" class="node">
<title>DialogCloseDirective</title>
<polygon fill="#ffffb3" stroke="#000000" points="1035.0716,-122 896.9284,-122 896.9284,-86 1035.0716,-86 1035.0716,-122"/>
<text text-anchor="middle" x="966" y="-99.8" font-family="Times,serif" font-size="14.00" fill="#000000">DialogCloseDirective</text>
</g>
<!-- DialogCloseDirective&#45;&gt;UiKitFloatingDialogModule -->
<g id="edge2" class="edge">
<title>DialogCloseDirective&#45;&gt;UiKitFloatingDialogModule</title>
<path fill="none" stroke="#000000" d="M966,-122.2667C966,-140.5552 966,-166 966,-166 966,-166 705.2811,-166 705.2811,-166"/>
<polygon fill="#000000" stroke="#000000" points="705.2811,-162.5001 695.2811,-166 705.281,-169.5001 705.2811,-162.5001"/>
</g>
<!-- DialogConfirmComponent -->
<g id="node3" class="node">
<title>DialogConfirmComponent</title>
<polygon fill="#ffffb3" stroke="#000000" points="879.3738,-122 712.6262,-122 712.6262,-86 879.3738,-86 879.3738,-122"/>
<text text-anchor="middle" x="796" y="-99.8" font-family="Times,serif" font-size="14.00" fill="#000000">DialogConfirmComponent</text>
</g>
<!-- DialogConfirmComponent&#45;&gt;UiKitFloatingDialogModule -->
<g id="edge3" class="edge">
<title>DialogConfirmComponent&#45;&gt;UiKitFloatingDialogModule</title>
<path fill="none" stroke="#000000" d="M779.6745,-122.0091C779.6745,-138.0494 779.6745,-159 779.6745,-159 779.6745,-159 705.1077,-159 705.1077,-159"/>
<polygon fill="#000000" stroke="#000000" points="705.1077,-155.5001 695.1077,-159 705.1077,-162.5001 705.1077,-155.5001"/>
</g>
<!-- DialogContainerComponent -->
<g id="node4" class="node">
<title>DialogContainerComponent</title>
<polygon fill="#ffffb3" stroke="#000000" points="694.1428,-122 519.8572,-122 519.8572,-86 694.1428,-86 694.1428,-122"/>
<text text-anchor="middle" x="607" y="-99.8" font-family="Times,serif" font-size="14.00" fill="#000000">DialogContainerComponent</text>
</g>
<!-- DialogContainerComponent&#45;&gt;UiKitFloatingDialogModule -->
<g id="edge4" class="edge">
<title>DialogContainerComponent&#45;&gt;UiKitFloatingDialogModule</title>
<path fill="none" stroke="#000000" d="M607,-122.1061C607,-122.1061 607,-140.991 607,-140.991"/>
<polygon fill="#000000" stroke="#000000" points="603.5001,-140.9909 607,-150.991 610.5001,-140.991 603.5001,-140.9909"/>
</g>
<!-- DialogDeleteComponent -->
<g id="node5" class="node">
<title>DialogDeleteComponent</title>
<polygon fill="#ffffb3" stroke="#000000" points="501.9664,-122 346.0336,-122 346.0336,-86 501.9664,-86 501.9664,-122"/>
<text text-anchor="middle" x="424" y="-99.8" font-family="Times,serif" font-size="14.00" fill="#000000">DialogDeleteComponent</text>
</g>
<!-- DialogDeleteComponent&#45;&gt;UiKitFloatingDialogModule -->
<g id="edge5" class="edge">
<title>DialogDeleteComponent&#45;&gt;UiKitFloatingDialogModule</title>
<path fill="none" stroke="#000000" d="M429.5633,-122.027C429.5633,-138.3976 429.5633,-160 429.5633,-160 429.5633,-160 508.8015,-160 508.8015,-160"/>
<polygon fill="#000000" stroke="#000000" points="508.8015,-163.5001 518.8015,-160 508.8014,-156.5001 508.8015,-163.5001"/>
</g>
<!-- DialogShellComponent -->
<g id="node6" class="node">
<title>DialogShellComponent</title>
<polygon fill="#ffffb3" stroke="#000000" points="328.2134,-122 179.7866,-122 179.7866,-86 328.2134,-86 328.2134,-122"/>
<text text-anchor="middle" x="254" y="-99.8" font-family="Times,serif" font-size="14.00" fill="#000000">DialogShellComponent</text>
</g>
<!-- DialogShellComponent&#45;&gt;UiKitFloatingDialogModule -->
<g id="edge6" class="edge">
<title>DialogShellComponent&#45;&gt;UiKitFloatingDialogModule</title>
<path fill="none" stroke="#000000" d="M254,-122.1061C254,-141.3391 254,-169 254,-169 254,-169 508.8338,-169 508.8338,-169"/>
<polygon fill="#000000" stroke="#000000" points="508.8338,-172.5001 518.8338,-169 508.8337,-165.5001 508.8338,-172.5001"/>
</g>
<!-- DialogCloseDirective  -->
<g id="node8" class="node">
<title>DialogCloseDirective </title>
<polygon fill="#fb8072" stroke="#000000" points="846.5722,-252 705.4278,-252 705.4278,-216 846.5722,-216 846.5722,-252"/>
<text text-anchor="middle" x="776" y="-229.8" font-family="Times,serif" font-size="14.00" fill="#000000">DialogCloseDirective </text>
</g>
<!-- UiKitFloatingDialogModule&#45;&gt;DialogCloseDirective  -->
<g id="edge7" class="edge">
<title>UiKitFloatingDialogModule&#45;&gt;DialogCloseDirective </title>
<path fill="none" stroke="#000000" stroke-dasharray="5,2" d="M695.1475,-180C703.4767,-180 708.8887,-180 708.8887,-180 708.8887,-180 708.8887,-205.7181 708.8887,-205.7181"/>
<polygon fill="#000000" stroke="#000000" points="705.3887,-205.718 708.8887,-215.7181 712.3887,-205.7181 705.3887,-205.718"/>
</g>
<!-- DialogDeleteComponent  -->
<g id="node9" class="node">
<title>DialogDeleteComponent </title>
<polygon fill="#fb8072" stroke="#000000" points="686.9671,-252 527.0329,-252 527.0329,-216 686.9671,-216 686.9671,-252"/>
<text text-anchor="middle" x="607" y="-229.8" font-family="Times,serif" font-size="14.00" fill="#000000">DialogDeleteComponent </text>
</g>
<!-- UiKitFloatingDialogModule&#45;&gt;DialogDeleteComponent  -->
<g id="edge8" class="edge">
<title>UiKitFloatingDialogModule&#45;&gt;DialogDeleteComponent </title>
<path fill="none" stroke="#000000" stroke-dasharray="5,2" d="M607,-187.1061C607,-187.1061 607,-205.991 607,-205.991"/>
<polygon fill="#000000" stroke="#000000" points="603.5001,-205.9909 607,-215.991 610.5001,-205.991 603.5001,-205.9909"/>
</g>
<!-- DialogShellComponent  -->
<g id="node10" class="node">
<title>DialogShellComponent </title>
<polygon fill="#fb8072" stroke="#000000" points="508.7135,-252 357.2865,-252 357.2865,-216 508.7135,-216 508.7135,-252"/>
<text text-anchor="middle" x="433" y="-229.8" font-family="Times,serif" font-size="14.00" fill="#000000">DialogShellComponent </text>
</g>
<!-- UiKitFloatingDialogModule&#45;&gt;DialogShellComponent  -->
<g id="edge9" class="edge">
<title>UiKitFloatingDialogModule&#45;&gt;DialogShellComponent </title>
<path fill="none" stroke="#000000" stroke-dasharray="5,2" d="M523.0819,-187.1061C523.0819,-206.3391 523.0819,-234 523.0819,-234 523.0819,-234 519.0066,-234 519.0066,-234"/>
<polygon fill="#000000" stroke="#000000" points="519.0066,-230.5001 509.0066,-234 519.0065,-237.5001 519.0066,-230.5001"/>
</g>
<!-- DialogService -->
<g id="node11" class="node">
<title>DialogService</title>
<ellipse fill="#fdb462" stroke="#000000" cx="90" cy="-104" rx="66.0492" ry="18"/>
<text text-anchor="middle" x="90" y="-99.8" font-family="Times,serif" font-size="14.00" fill="#000000">DialogService</text>
</g>
<!-- DialogService&#45;&gt;UiKitFloatingDialogModule -->
<g id="edge10" class="edge">
<title>DialogService&#45;&gt;UiKitFloatingDialogModule</title>
<path fill="none" stroke="#000000" d="M90,-122.2921C90,-144.2057 90,-178 90,-178 90,-178 508.712,-178 508.712,-178"/>
<polygon fill="#000000" stroke="#000000" points="508.712,-181.5001 518.712,-178 508.7119,-174.5001 508.712,-181.5001"/>
</g>
</g>
</svg>
