<?xml version="1.0" encoding="UTF-8" standalone="no"?>
<!DOCTYPE svg PUBLIC "-//W3C//DTD SVG 1.1//EN"
 "http://www.w3.org/Graphics/SVG/1.1/DTD/svg11.dtd">
<!-- Generated by graphviz version 2.40.1 (20161225.0304)
 -->
<!-- Title: dependencies Pages: 1 -->
<svg width="708pt" height="284pt"
 viewBox="0.00 0.00 708.00 284.00" xmlns="http://www.w3.org/2000/svg" xmlns:xlink="http://www.w3.org/1999/xlink">
<g id="graph0" class="graph" transform="scale(1 1) rotate(0) translate(4 280)">
<title>dependencies</title>
<polygon fill="#ffffff" stroke="transparent" points="-4,4 -4,-280 704,-280 704,4 -4,4"/>
<text text-anchor="start" x="329.0091" y="-42.4" font-family="sans-serif" font-weight="bold" font-size="14.00" fill="#000000">Legend</text>
<polygon fill="#ffffb3" stroke="transparent" points="116,-10 116,-30 136,-30 136,-10 116,-10"/>
<text text-anchor="start" x="139.629" y="-15.4" font-family="sans-serif" font-size="14.00" fill="#000000"> &#160;Declarations</text>
<polygon fill="#8dd3c7" stroke="transparent" points="229,-10 229,-30 249,-30 249,-10 229,-10"/>
<text text-anchor="start" x="252.7251" y="-15.4" font-family="sans-serif" font-size="14.00" fill="#000000"> &#160;Module</text>
<polygon fill="#80b1d3" stroke="transparent" points="315,-10 315,-30 335,-30 335,-10 315,-10"/>
<text text-anchor="start" x="338.7812" y="-15.4" font-family="sans-serif" font-size="14.00" fill="#000000"> &#160;Bootstrap</text>
<polygon fill="#fdb462" stroke="transparent" points="412,-10 412,-30 432,-30 432,-10 412,-10"/>
<text text-anchor="start" x="435.6732" y="-15.4" font-family="sans-serif" font-size="14.00" fill="#000000"> &#160;Providers</text>
<polygon fill="#fb8072" stroke="transparent" points="508,-10 508,-30 528,-30 528,-10 508,-10"/>
<text text-anchor="start" x="531.7258" y="-15.4" font-family="sans-serif" font-size="14.00" fill="#000000"> &#160;Exports</text>
<g id="clust1" class="cluster">
<title>cluster_UiKitFloatingDialogModule</title>
<polygon fill="none" stroke="#000000" stroke-dasharray="1,5" points="8,-70 8,-268 692,-268 692,-70 8,-70"/>
</g>
<g id="clust2" class="cluster">
<title>cluster_UiKitFloatingDialogModule_declarations</title>
<polygon fill="none" stroke="#000000" points="172,-78 172,-130 684,-130 684,-78 172,-78"/>
</g>
<g id="clust7" class="cluster">
<title>cluster_UiKitFloatingDialogModule_exports</title>
<polygon fill="none" stroke="#000000" points="93,-208 93,-260 421,-260 421,-208 93,-208"/>
</g>
<g id="clust9" class="cluster">
<title>cluster_UiKitFloatingDialogModule_providers</title>
<polygon fill="none" stroke="#000000" points="16,-78 16,-130 164,-130 164,-78 16,-78"/>
</g>
<!-- DialogCloseDirective -->
<g id="node1" class="node">
<title>DialogCloseDirective</title>
<polygon fill="#ffffb3" stroke="#000000" points="676.0716,-122 537.9284,-122 537.9284,-86 676.0716,-86 676.0716,-122"/>
<text text-anchor="middle" x="607" y="-99.8" font-family="Times,serif" font-size="14.00" fill="#000000">DialogCloseDirective</text>
</g>
<!-- UiKitFloatingDialogModule -->
<g id="node4" class="node">
<title>UiKitFloatingDialogModule</title>
<polygon fill="#8dd3c7" stroke="#000000" points="386.2063,-187 383.2063,-191 362.2063,-191 359.2063,-187 209.7937,-187 209.7937,-151 386.2063,-151 386.2063,-187"/>
<text text-anchor="middle" x="298" y="-164.8" font-family="Times,serif" font-size="14.00" fill="#000000">UiKitFloatingDialogModule</text>
</g>
<!-- DialogCloseDirective&#45;&gt;UiKitFloatingDialogModule -->
<g id="edge1" class="edge">
<title>DialogCloseDirective&#45;&gt;UiKitFloatingDialogModule</title>
<path fill="none" stroke="#000000" d="M607,-122.1061C607,-141.3391 607,-169 607,-169 607,-169 396.1335,-169 396.1335,-169"/>
<polygon fill="#000000" stroke="#000000" points="396.1335,-165.5001 386.1335,-169 396.1334,-172.5001 396.1335,-165.5001"/>
</g>
<!-- DialogContainerComponent -->
<g id="node2" class="node">
<title>DialogContainerComponent</title>
<polygon fill="#ffffb3" stroke="#000000" points="520.1428,-122 345.8572,-122 345.8572,-86 520.1428,-86 520.1428,-122"/>
<text text-anchor="middle" x="433" y="-99.8" font-family="Times,serif" font-size="14.00" fill="#000000">DialogContainerComponent</text>
</g>
<!-- DialogContainerComponent&#45;&gt;UiKitFloatingDialogModule -->
<g id="edge2" class="edge">
<title>DialogContainerComponent&#45;&gt;UiKitFloatingDialogModule</title>
<path fill="none" stroke="#000000" d="M365.8909,-122.1061C365.8909,-122.1061 365.8909,-140.991 365.8909,-140.991"/>
<polygon fill="#000000" stroke="#000000" points="362.391,-140.9909 365.8909,-150.991 369.391,-140.991 362.391,-140.9909"/>
</g>
<!-- DialogShellComponent -->
<g id="node3" class="node">
<title>DialogShellComponent</title>
<polygon fill="#ffffb3" stroke="#000000" points="328.2134,-122 179.7866,-122 179.7866,-86 328.2134,-86 328.2134,-122"/>
<text text-anchor="middle" x="254" y="-99.8" font-family="Times,serif" font-size="14.00" fill="#000000">DialogShellComponent</text>
</g>
<!-- DialogShellComponent&#45;&gt;UiKitFloatingDialogModule -->
<g id="edge3" class="edge">
<title>DialogShellComponent&#45;&gt;UiKitFloatingDialogModule</title>
<path fill="none" stroke="#000000" d="M269.0018,-122.1061C269.0018,-122.1061 269.0018,-140.991 269.0018,-140.991"/>
<polygon fill="#000000" stroke="#000000" points="265.5018,-140.9909 269.0018,-150.991 272.5018,-140.991 265.5018,-140.9909"/>
</g>
<!-- DialogCloseDirective  -->
<g id="node5" class="node">
<title>DialogCloseDirective </title>
<polygon fill="#fb8072" stroke="#000000" points="412.5722,-252 271.4278,-252 271.4278,-216 412.5722,-216 412.5722,-252"/>
<text text-anchor="middle" x="342" y="-229.8" font-family="Times,serif" font-size="14.00" fill="#000000">DialogCloseDirective </text>
</g>
<!-- UiKitFloatingDialogModule&#45;&gt;DialogCloseDirective  -->
<g id="edge4" class="edge">
<title>UiKitFloatingDialogModule&#45;&gt;DialogCloseDirective </title>
<path fill="none" stroke="#000000" stroke-dasharray="5,2" d="M328.6586,-187.1061C328.6586,-187.1061 328.6586,-205.991 328.6586,-205.991"/>
<polygon fill="#000000" stroke="#000000" points="325.1587,-205.9909 328.6586,-215.991 332.1587,-205.991 325.1587,-205.9909"/>
</g>
<!-- DialogShellComponent  -->
<g id="node6" class="node">
<title>DialogShellComponent </title>
<polygon fill="#fb8072" stroke="#000000" points="252.7135,-252 101.2865,-252 101.2865,-216 252.7135,-216 252.7135,-252"/>
<text text-anchor="middle" x="177" y="-229.8" font-family="Times,serif" font-size="14.00" fill="#000000">DialogShellComponent </text>
</g>
<!-- UiKitFloatingDialogModule&#45;&gt;DialogShellComponent  -->
<g id="edge5" class="edge">
<title>UiKitFloatingDialogModule&#45;&gt;DialogShellComponent </title>
<path fill="none" stroke="#000000" stroke-dasharray="5,2" d="M231.3768,-187.1061C231.3768,-187.1061 231.3768,-205.991 231.3768,-205.991"/>
<polygon fill="#000000" stroke="#000000" points="227.8768,-205.9909 231.3768,-215.991 234.8768,-205.991 227.8768,-205.9909"/>
</g>
<!-- DialogService -->
<g id="node7" class="node">
<title>DialogService</title>
<ellipse fill="#fdb462" stroke="#000000" cx="90" cy="-104" rx="66.0492" ry="18"/>
<text text-anchor="middle" x="90" y="-99.8" font-family="Times,serif" font-size="14.00" fill="#000000">DialogService</text>
</g>
<!-- DialogService&#45;&gt;UiKitFloatingDialogModule -->
<g id="edge6" class="edge">
<title>DialogService&#45;&gt;UiKitFloatingDialogModule</title>
<path fill="none" stroke="#000000" d="M128.7088,-118.7495C128.7088,-137.9272 128.7088,-169 128.7088,-169 128.7088,-169 199.8835,-169 199.8835,-169"/>
<polygon fill="#000000" stroke="#000000" points="199.8835,-172.5001 209.8835,-169 199.8834,-165.5001 199.8835,-172.5001"/>
</g>
</g>
</svg>
