<?xml version="1.0" encoding="UTF-8" standalone="no"?>
<!DOCTYPE svg PUBLIC "-//W3C//DTD SVG 1.1//EN"
 "http://www.w3.org/Graphics/SVG/1.1/DTD/svg11.dtd">
<!-- Generated by graphviz version 2.40.1 (20161225.0304)
 -->
<!-- Title: dependencies Pages: 1 -->
<svg width="504pt" height="284pt"
 viewBox="0.00 0.00 504.00 284.00" xmlns="http://www.w3.org/2000/svg" xmlns:xlink="http://www.w3.org/1999/xlink">
<g id="graph0" class="graph" transform="scale(1 1) rotate(0) translate(4 280)">
<title>dependencies</title>
<polygon fill="#ffffff" stroke="transparent" points="-4,4 -4,-280 500,-280 500,4 -4,4"/>
<text text-anchor="start" x="227.0091" y="-42.4" font-family="sans-serif" font-weight="bold" font-size="14.00" fill="#000000">Legend</text>
<polygon fill="#ffffb3" stroke="transparent" points="14,-10 14,-30 34,-30 34,-10 14,-10"/>
<text text-anchor="start" x="37.629" y="-15.4" font-family="sans-serif" font-size="14.00" fill="#000000"> &#160;Declarations</text>
<polygon fill="#8dd3c7" stroke="transparent" points="127,-10 127,-30 147,-30 147,-10 127,-10"/>
<text text-anchor="start" x="150.7251" y="-15.4" font-family="sans-serif" font-size="14.00" fill="#000000"> &#160;Module</text>
<polygon fill="#80b1d3" stroke="transparent" points="213,-10 213,-30 233,-30 233,-10 213,-10"/>
<text text-anchor="start" x="236.7812" y="-15.4" font-family="sans-serif" font-size="14.00" fill="#000000"> &#160;Bootstrap</text>
<polygon fill="#fdb462" stroke="transparent" points="310,-10 310,-30 330,-30 330,-10 310,-10"/>
<text text-anchor="start" x="333.6732" y="-15.4" font-family="sans-serif" font-size="14.00" fill="#000000"> &#160;Providers</text>
<polygon fill="#fb8072" stroke="transparent" points="406,-10 406,-30 426,-30 426,-10 406,-10"/>
<text text-anchor="start" x="429.7258" y="-15.4" font-family="sans-serif" font-size="14.00" fill="#000000"> &#160;Exports</text>
<g id="clust1" class="cluster">
<title>cluster_LicensesModule</title>
<polygon fill="none" stroke="#000000" stroke-dasharray="1,5" points="57,-70 57,-268 439,-268 439,-70 57,-70"/>
</g>
<g id="clust4" class="cluster">
<title>cluster_LicensesModule_exports</title>
<polygon fill="none" stroke="#000000" points="92,-208 92,-260 373,-260 373,-208 92,-208"/>
</g>
<g id="clust6" class="cluster">
<title>cluster_LicensesModule_providers</title>
<polygon fill="none" stroke="#000000" points="65,-78 65,-130 431,-130 431,-78 65,-78"/>
</g>
<!-- LicensesService  -->
<g id="node1" class="node">
<title>LicensesService </title>
<polygon fill="#fb8072" stroke="#000000" points="365.4547,-252 254.5453,-252 254.5453,-216 365.4547,-216 365.4547,-252"/>
<text text-anchor="middle" x="310" y="-229.8" font-family="Times,serif" font-size="14.00" fill="#000000">LicensesService </text>
</g>
<!-- UserLicensesService  -->
<g id="node2" class="node">
<title>UserLicensesService </title>
<polygon fill="#fb8072" stroke="#000000" points="236.3803,-252 99.6197,-252 99.6197,-216 236.3803,-216 236.3803,-252"/>
<text text-anchor="middle" x="168" y="-229.8" font-family="Times,serif" font-size="14.00" fill="#000000">UserLicensesService </text>
</g>
<!-- LicensesModule -->
<g id="node3" class="node">
<title>LicensesModule</title>
<polygon fill="#8dd3c7" stroke="#000000" points="249.027,-187 246.027,-191 225.027,-191 222.027,-187 140.973,-187 140.973,-151 249.027,-151 249.027,-187"/>
<text text-anchor="middle" x="195" y="-164.8" font-family="Times,serif" font-size="14.00" fill="#000000">LicensesModule</text>
</g>
<!-- LicensesModule&#45;&gt;LicensesService  -->
<g id="edge1" class="edge">
<title>LicensesModule&#45;&gt;LicensesService </title>
<path fill="none" stroke="#000000" stroke-dasharray="5,2" d="M242.8516,-187.1061C242.8516,-206.3391 242.8516,-234 242.8516,-234 242.8516,-234 244.5479,-234 244.5479,-234"/>
<polygon fill="#000000" stroke="#000000" points="244.548,-237.5001 254.5479,-234 244.5479,-230.5001 244.548,-237.5001"/>
</g>
<!-- LicensesModule&#45;&gt;UserLicensesService  -->
<g id="edge2" class="edge">
<title>LicensesModule&#45;&gt;UserLicensesService </title>
<path fill="none" stroke="#000000" stroke-dasharray="5,2" d="M188.5886,-187.1061C188.5886,-187.1061 188.5886,-205.991 188.5886,-205.991"/>
<polygon fill="#000000" stroke="#000000" points="185.0886,-205.9909 188.5886,-215.991 192.0886,-205.991 185.0886,-205.9909"/>
</g>
<!-- LicensesService -->
<g id="node4" class="node">
<title>LicensesService</title>
<ellipse fill="#fdb462" stroke="#000000" cx="349" cy="-104" rx="73.5502" ry="18"/>
<text text-anchor="middle" x="349" y="-99.8" font-family="Times,serif" font-size="14.00" fill="#000000">LicensesService</text>
</g>
<!-- LicensesService&#45;&gt;LicensesModule -->
<g id="edge3" class="edge">
<title>LicensesService&#45;&gt;LicensesModule</title>
<path fill="none" stroke="#000000" d="M320.2261,-120.7391C320.2261,-139.9982 320.2261,-169 320.2261,-169 320.2261,-169 259.1976,-169 259.1976,-169"/>
<polygon fill="#000000" stroke="#000000" points="259.1977,-165.5001 249.1976,-169 259.1976,-172.5001 259.1977,-165.5001"/>
</g>
<!-- UserLicensesService -->
<g id="node5" class="node">
<title>UserLicensesService</title>
<ellipse fill="#fdb462" stroke="#000000" cx="165" cy="-104" rx="92.0065" ry="18"/>
<text text-anchor="middle" x="165" y="-99.8" font-family="Times,serif" font-size="14.00" fill="#000000">UserLicensesService</text>
</g>
<!-- UserLicensesService&#45;&gt;LicensesModule -->
<g id="edge4" class="edge">
<title>UserLicensesService&#45;&gt;LicensesModule</title>
<path fill="none" stroke="#000000" d="M195,-121.078C195,-121.078 195,-140.8993 195,-140.8993"/>
<polygon fill="#000000" stroke="#000000" points="191.5001,-140.8992 195,-150.8993 198.5001,-140.8993 191.5001,-140.8992"/>
</g>
</g>
</svg>
