<?xml version="1.0" encoding="UTF-8" standalone="no"?>
<!DOCTYPE svg PUBLIC "-//W3C//DTD SVG 1.1//EN"
 "http://www.w3.org/Graphics/SVG/1.1/DTD/svg11.dtd">
<!-- Generated by graphviz version 2.40.1 (20161225.0304)
 -->
<!-- Title: dependencies Pages: 1 -->
<svg width="715pt" height="284pt"
 viewBox="0.00 0.00 715.00 284.00" xmlns="http://www.w3.org/2000/svg" xmlns:xlink="http://www.w3.org/1999/xlink">
<g id="graph0" class="graph" transform="scale(1 1) rotate(0) translate(4 280)">
<title>dependencies</title>
<polygon fill="#ffffff" stroke="transparent" points="-4,4 -4,-280 711,-280 711,4 -4,4"/>
<text text-anchor="start" x="332.5091" y="-42.4" font-family="sans-serif" font-weight="bold" font-size="14.00" fill="#000000">Legend</text>
<polygon fill="#ffffb3" stroke="transparent" points="119.5,-10 119.5,-30 139.5,-30 139.5,-10 119.5,-10"/>
<text text-anchor="start" x="143.129" y="-15.4" font-family="sans-serif" font-size="14.00" fill="#000000"> &#160;Declarations</text>
<polygon fill="#8dd3c7" stroke="transparent" points="232.5,-10 232.5,-30 252.5,-30 252.5,-10 232.5,-10"/>
<text text-anchor="start" x="256.2251" y="-15.4" font-family="sans-serif" font-size="14.00" fill="#000000"> &#160;Module</text>
<polygon fill="#80b1d3" stroke="transparent" points="318.5,-10 318.5,-30 338.5,-30 338.5,-10 318.5,-10"/>
<text text-anchor="start" x="342.2812" y="-15.4" font-family="sans-serif" font-size="14.00" fill="#000000"> &#160;Bootstrap</text>
<polygon fill="#fdb462" stroke="transparent" points="415.5,-10 415.5,-30 435.5,-30 435.5,-10 415.5,-10"/>
<text text-anchor="start" x="439.1732" y="-15.4" font-family="sans-serif" font-size="14.00" fill="#000000"> &#160;Providers</text>
<polygon fill="#fb8072" stroke="transparent" points="511.5,-10 511.5,-30 531.5,-30 531.5,-10 511.5,-10"/>
<text text-anchor="start" x="535.2258" y="-15.4" font-family="sans-serif" font-size="14.00" fill="#000000"> &#160;Exports</text>
<g id="clust1" class="cluster">
<title>cluster_UiKitFloatingPopoverModule</title>
<polygon fill="none" stroke="#000000" stroke-dasharray="1,5" points="8,-70 8,-268 699,-268 699,-70 8,-70"/>
</g>
<g id="clust2" class="cluster">
<title>cluster_UiKitFloatingPopoverModule_declarations</title>
<polygon fill="none" stroke="#000000" points="184,-78 184,-130 691,-130 691,-78 184,-78"/>
</g>
<g id="clust7" class="cluster">
<title>cluster_UiKitFloatingPopoverModule_exports</title>
<polygon fill="none" stroke="#000000" points="272,-208 272,-260 438,-260 438,-208 272,-208"/>
</g>
<g id="clust9" class="cluster">
<title>cluster_UiKitFloatingPopoverModule_providers</title>
<polygon fill="none" stroke="#000000" points="16,-78 16,-130 176,-130 176,-78 16,-78"/>
</g>
<!-- PopoverArrowDirective -->
<g id="node1" class="node">
<title>PopoverArrowDirective</title>
<polygon fill="#ffffb3" stroke="#000000" points="682.7753,-122 531.2247,-122 531.2247,-86 682.7753,-86 682.7753,-122"/>
<text text-anchor="middle" x="607" y="-99.8" font-family="Times,serif" font-size="14.00" fill="#000000">PopoverArrowDirective</text>
</g>
<!-- UiKitFloatingPopoverModule -->
<g id="node4" class="node">
<title>UiKitFloatingPopoverModule</title>
<polygon fill="#8dd3c7" stroke="#000000" points="447.2618,-187 444.2618,-191 423.2618,-191 420.2618,-187 262.7382,-187 262.7382,-151 447.2618,-151 447.2618,-187"/>
<text text-anchor="middle" x="355" y="-164.8" font-family="Times,serif" font-size="14.00" fill="#000000">UiKitFloatingPopoverModule</text>
</g>
<!-- PopoverArrowDirective&#45;&gt;UiKitFloatingPopoverModule -->
<g id="edge1" class="edge">
<title>PopoverArrowDirective&#45;&gt;UiKitFloatingPopoverModule</title>
<path fill="none" stroke="#000000" d="M607,-122.1061C607,-141.3391 607,-169 607,-169 607,-169 457.4046,-169 457.4046,-169"/>
<polygon fill="#000000" stroke="#000000" points="457.4046,-165.5001 447.4046,-169 457.4045,-172.5001 457.4046,-165.5001"/>
</g>
<!-- PopoverCloseDirective -->
<g id="node2" class="node">
<title>PopoverCloseDirective</title>
<polygon fill="#ffffb3" stroke="#000000" points="513.1275,-122 366.8725,-122 366.8725,-86 513.1275,-86 513.1275,-122"/>
<text text-anchor="middle" x="440" y="-99.8" font-family="Times,serif" font-size="14.00" fill="#000000">PopoverCloseDirective</text>
</g>
<!-- PopoverCloseDirective&#45;&gt;UiKitFloatingPopoverModule -->
<g id="edge2" class="edge">
<title>PopoverCloseDirective&#45;&gt;UiKitFloatingPopoverModule</title>
<path fill="none" stroke="#000000" d="M407.0336,-122.1061C407.0336,-122.1061 407.0336,-140.991 407.0336,-140.991"/>
<polygon fill="#000000" stroke="#000000" points="403.5337,-140.9909 407.0336,-150.991 410.5337,-140.991 403.5337,-140.9909"/>
</g>
<!-- PopoverShellComponent -->
<g id="node3" class="node">
<title>PopoverShellComponent</title>
<polygon fill="#ffffb3" stroke="#000000" points="348.2688,-122 191.7312,-122 191.7312,-86 348.2688,-86 348.2688,-122"/>
<text text-anchor="middle" x="270" y="-99.8" font-family="Times,serif" font-size="14.00" fill="#000000">PopoverShellComponent</text>
</g>
<!-- PopoverShellComponent&#45;&gt;UiKitFloatingPopoverModule -->
<g id="edge3" class="edge">
<title>PopoverShellComponent&#45;&gt;UiKitFloatingPopoverModule</title>
<path fill="none" stroke="#000000" d="M305.5018,-122.1061C305.5018,-122.1061 305.5018,-140.991 305.5018,-140.991"/>
<polygon fill="#000000" stroke="#000000" points="302.0018,-140.9909 305.5018,-150.991 309.0018,-140.991 302.0018,-140.9909"/>
</g>
<!-- PopoverCloseDirective  -->
<g id="node5" class="node">
<title>PopoverCloseDirective </title>
<polygon fill="#fb8072" stroke="#000000" points="430.1271,-252 279.8729,-252 279.8729,-216 430.1271,-216 430.1271,-252"/>
<text text-anchor="middle" x="355" y="-229.8" font-family="Times,serif" font-size="14.00" fill="#000000">PopoverCloseDirective </text>
</g>
<!-- UiKitFloatingPopoverModule&#45;&gt;PopoverCloseDirective  -->
<g id="edge4" class="edge">
<title>UiKitFloatingPopoverModule&#45;&gt;PopoverCloseDirective </title>
<path fill="none" stroke="#000000" stroke-dasharray="5,2" d="M355,-187.1061C355,-187.1061 355,-205.991 355,-205.991"/>
<polygon fill="#000000" stroke="#000000" points="351.5001,-205.9909 355,-215.991 358.5001,-205.991 351.5001,-205.9909"/>
</g>
<!-- PopoverService -->
<g id="node6" class="node">
<title>PopoverService</title>
<ellipse fill="#fdb462" stroke="#000000" cx="96" cy="-104" rx="72.3516" ry="18"/>
<text text-anchor="middle" x="96" y="-99.8" font-family="Times,serif" font-size="14.00" fill="#000000">PopoverService</text>
</g>
<!-- PopoverService&#45;&gt;UiKitFloatingPopoverModule -->
<g id="edge5" class="edge">
<title>PopoverService&#45;&gt;UiKitFloatingPopoverModule</title>
<path fill="none" stroke="#000000" d="M96,-122.1061C96,-141.3391 96,-169 96,-169 96,-169 252.592,-169 252.592,-169"/>
<polygon fill="#000000" stroke="#000000" points="252.592,-172.5001 262.592,-169 252.5919,-165.5001 252.592,-172.5001"/>
</g>
</g>
</svg>
