<?xml version="1.0" encoding="UTF-8" standalone="no"?>
<!DOCTYPE svg PUBLIC "-//W3C//DTD SVG 1.1//EN"
 "http://www.w3.org/Graphics/SVG/1.1/DTD/svg11.dtd">
<!-- Generated by graphviz version 2.40.1 (20161225.0304)
 -->
<!-- Title: dependencies Pages: 1 -->
<svg width="935pt" height="211pt"
 viewBox="0.00 0.00 935.00 211.00" xmlns="http://www.w3.org/2000/svg" xmlns:xlink="http://www.w3.org/1999/xlink">
<g id="graph0" class="graph" transform="scale(1 1) rotate(0) translate(4 207)">
<title>dependencies</title>
<polygon fill="#ffffff" stroke="transparent" points="-4,4 -4,-207 931,-207 931,4 -4,4"/>
<text text-anchor="start" x="442.5091" y="-42.4" font-family="sans-serif" font-weight="bold" font-size="14.00" fill="#000000">Legend</text>
<polygon fill="#ffffb3" stroke="transparent" points="229.5,-10 229.5,-30 249.5,-30 249.5,-10 229.5,-10"/>
<text text-anchor="start" x="253.129" y="-15.4" font-family="sans-serif" font-size="14.00" fill="#000000"> &#160;Declarations</text>
<polygon fill="#8dd3c7" stroke="transparent" points="342.5,-10 342.5,-30 362.5,-30 362.5,-10 342.5,-10"/>
<text text-anchor="start" x="366.2251" y="-15.4" font-family="sans-serif" font-size="14.00" fill="#000000"> &#160;Module</text>
<polygon fill="#80b1d3" stroke="transparent" points="428.5,-10 428.5,-30 448.5,-30 448.5,-10 428.5,-10"/>
<text text-anchor="start" x="452.2812" y="-15.4" font-family="sans-serif" font-size="14.00" fill="#000000"> &#160;Bootstrap</text>
<polygon fill="#fdb462" stroke="transparent" points="525.5,-10 525.5,-30 545.5,-30 545.5,-10 525.5,-10"/>
<text text-anchor="start" x="549.1732" y="-15.4" font-family="sans-serif" font-size="14.00" fill="#000000"> &#160;Providers</text>
<polygon fill="#fb8072" stroke="transparent" points="621.5,-10 621.5,-30 641.5,-30 641.5,-10 621.5,-10"/>
<text text-anchor="start" x="645.2258" y="-15.4" font-family="sans-serif" font-size="14.00" fill="#000000"> &#160;Exports</text>
<g id="clust1" class="cluster">
<title>cluster_AccountFeatureAuthModule</title>
<polygon fill="none" stroke="#000000" stroke-dasharray="1,5" points="8,-70 8,-195 919,-195 919,-70 8,-70"/>
</g>
<g id="clust2" class="cluster">
<title>cluster_AccountFeatureAuthModule_declarations</title>
<polygon fill="none" stroke="#000000" points="590,-78 590,-130 911,-130 911,-78 590,-78"/>
</g>
<g id="clust5" class="cluster">
<title>cluster_AccountFeatureAuthModule_imports</title>
<polygon fill="none" stroke="#000000" points="16,-78 16,-130 582,-130 582,-78 16,-78"/>
</g>
<!-- LayoutComponent -->
<g id="node1" class="node">
<title>LayoutComponent</title>
<polygon fill="#ffffb3" stroke="#000000" points="903.4902,-122 782.5098,-122 782.5098,-86 903.4902,-86 903.4902,-122"/>
<text text-anchor="middle" x="843" y="-99.8" font-family="Times,serif" font-size="14.00" fill="#000000">LayoutComponent</text>
</g>
<!-- AccountFeatureAuthModule -->
<g id="node3" class="node">
<title>AccountFeatureAuthModule</title>
<polygon fill="#8dd3c7" stroke="#000000" points="575.451,-187 572.451,-191 551.451,-191 548.451,-187 398.549,-187 398.549,-151 575.451,-151 575.451,-187"/>
<text text-anchor="middle" x="487" y="-164.8" font-family="Times,serif" font-size="14.00" fill="#000000">AccountFeatureAuthModule</text>
</g>
<!-- LayoutComponent&#45;&gt;AccountFeatureAuthModule -->
<g id="edge1" class="edge">
<title>LayoutComponent&#45;&gt;AccountFeatureAuthModule</title>
<path fill="none" stroke="#000000" d="M843,-122.2843C843,-143.3211 843,-175 843,-175 843,-175 585.4574,-175 585.4574,-175"/>
<polygon fill="#000000" stroke="#000000" points="585.4574,-171.5001 575.4574,-175 585.4574,-178.5001 585.4574,-171.5001"/>
</g>
<!-- ResetPasswordComponent -->
<g id="node2" class="node">
<title>ResetPasswordComponent</title>
<polygon fill="#ffffb3" stroke="#000000" points="764.087,-122 597.913,-122 597.913,-86 764.087,-86 764.087,-122"/>
<text text-anchor="middle" x="681" y="-99.8" font-family="Times,serif" font-size="14.00" fill="#000000">ResetPasswordComponent</text>
</g>
<!-- ResetPasswordComponent&#45;&gt;AccountFeatureAuthModule -->
<g id="edge2" class="edge">
<title>ResetPasswordComponent&#45;&gt;AccountFeatureAuthModule</title>
<path fill="none" stroke="#000000" d="M681,-122.0225C681,-139.3734 681,-163 681,-163 681,-163 585.4844,-163 585.4844,-163"/>
<polygon fill="#000000" stroke="#000000" points="585.4844,-159.5001 575.4844,-163 585.4843,-166.5001 585.4844,-159.5001"/>
</g>
<!-- AccountSharedAuthModule -->
<g id="node4" class="node">
<title>AccountSharedAuthModule</title>
<polygon fill="#8dd3c7" stroke="#000000" points="573.8459,-122 570.8459,-126 549.8459,-126 546.8459,-122 400.1541,-122 400.1541,-86 573.8459,-86 573.8459,-122"/>
<text text-anchor="middle" x="487" y="-99.8" font-family="Times,serif" font-size="14.00" fill="#000000">AccountSharedAuthModule</text>
</g>
<!-- AccountSharedAuthModule&#45;&gt;AccountFeatureAuthModule -->
<g id="edge3" class="edge">
<title>AccountSharedAuthModule&#45;&gt;AccountFeatureAuthModule</title>
<path fill="none" stroke="#000000" d="M487,-122.1061C487,-122.1061 487,-140.991 487,-140.991"/>
<polygon fill="#000000" stroke="#000000" points="483.5001,-140.9909 487,-150.991 490.5001,-140.991 483.5001,-140.9909"/>
</g>
<!-- UiKitFloatingDialogModule -->
<g id="node5" class="node">
<title>UiKitFloatingDialogModule</title>
<polygon fill="#8dd3c7" stroke="#000000" points="382.2063,-122 379.2063,-126 358.2063,-126 355.2063,-122 205.7937,-122 205.7937,-86 382.2063,-86 382.2063,-122"/>
<text text-anchor="middle" x="294" y="-99.8" font-family="Times,serif" font-size="14.00" fill="#000000">UiKitFloatingDialogModule</text>
</g>
<!-- UiKitFloatingDialogModule&#45;&gt;AccountFeatureAuthModule -->
<g id="edge4" class="edge">
<title>UiKitFloatingDialogModule&#45;&gt;AccountFeatureAuthModule</title>
<path fill="none" stroke="#000000" d="M294,-122.0225C294,-139.3734 294,-163 294,-163 294,-163 388.4081,-163 388.4081,-163"/>
<polygon fill="#000000" stroke="#000000" points="388.4082,-166.5001 398.4081,-163 388.4081,-159.5001 388.4082,-166.5001"/>
</g>
<!-- UiKitFormBuilderModule -->
<g id="node6" class="node">
<title>UiKitFormBuilderModule</title>
<polygon fill="#8dd3c7" stroke="#000000" points="187.7618,-122 184.7618,-126 163.7618,-126 160.7618,-122 24.2382,-122 24.2382,-86 187.7618,-86 187.7618,-122"/>
<text text-anchor="middle" x="106" y="-99.8" font-family="Times,serif" font-size="14.00" fill="#000000">UiKitFormBuilderModule</text>
</g>
<!-- UiKitFormBuilderModule&#45;&gt;AccountFeatureAuthModule -->
<g id="edge5" class="edge">
<title>UiKitFormBuilderModule&#45;&gt;AccountFeatureAuthModule</title>
<path fill="none" stroke="#000000" d="M106,-122.2843C106,-143.3211 106,-175 106,-175 106,-175 388.1533,-175 388.1533,-175"/>
<polygon fill="#000000" stroke="#000000" points="388.1533,-178.5001 398.1533,-175 388.1532,-171.5001 388.1533,-178.5001"/>
</g>
</g>
</svg>
