<?xml version="1.0" encoding="UTF-8" standalone="no"?>
<!DOCTYPE svg PUBLIC "-//W3C//DTD SVG 1.1//EN"
 "http://www.w3.org/Graphics/SVG/1.1/DTD/svg11.dtd">
<!-- Generated by graphviz version 2.40.1 (20161225.0304)
 -->
<!-- Title: dependencies Pages: 1 -->
<svg width="750pt" height="211pt"
 viewBox="0.00 0.00 750.00 211.00" xmlns="http://www.w3.org/2000/svg" xmlns:xlink="http://www.w3.org/1999/xlink">
<g id="graph0" class="graph" transform="scale(1 1) rotate(0) translate(4 207)">
<title>dependencies</title>
<polygon fill="#ffffff" stroke="transparent" points="-4,4 -4,-207 746,-207 746,4 -4,4"/>
<text text-anchor="start" x="350.0091" y="-42.4" font-family="sans-serif" font-weight="bold" font-size="14.00" fill="#000000">Legend</text>
<polygon fill="#ffffb3" stroke="transparent" points="137,-10 137,-30 157,-30 157,-10 137,-10"/>
<text text-anchor="start" x="160.629" y="-15.4" font-family="sans-serif" font-size="14.00" fill="#000000"> &#160;Declarations</text>
<polygon fill="#8dd3c7" stroke="transparent" points="250,-10 250,-30 270,-30 270,-10 250,-10"/>
<text text-anchor="start" x="273.7251" y="-15.4" font-family="sans-serif" font-size="14.00" fill="#000000"> &#160;Module</text>
<polygon fill="#80b1d3" stroke="transparent" points="336,-10 336,-30 356,-30 356,-10 336,-10"/>
<text text-anchor="start" x="359.7812" y="-15.4" font-family="sans-serif" font-size="14.00" fill="#000000"> &#160;Bootstrap</text>
<polygon fill="#fdb462" stroke="transparent" points="433,-10 433,-30 453,-30 453,-10 433,-10"/>
<text text-anchor="start" x="456.6732" y="-15.4" font-family="sans-serif" font-size="14.00" fill="#000000"> &#160;Providers</text>
<polygon fill="#fb8072" stroke="transparent" points="529,-10 529,-30 549,-30 549,-10 529,-10"/>
<text text-anchor="start" x="552.7258" y="-15.4" font-family="sans-serif" font-size="14.00" fill="#000000"> &#160;Exports</text>
<g id="clust1" class="cluster">
<title>cluster_AccountFeatureAuthModule</title>
<polygon fill="none" stroke="#000000" stroke-dasharray="1,5" points="8,-70 8,-195 734,-195 734,-70 8,-70"/>
</g>
<g id="clust2" class="cluster">
<title>cluster_AccountFeatureAuthModule_declarations</title>
<polygon fill="none" stroke="#000000" points="590,-78 590,-130 726,-130 726,-78 590,-78"/>
</g>
<g id="clust4" class="cluster">
<title>cluster_AccountFeatureAuthModule_imports</title>
<polygon fill="none" stroke="#000000" points="16,-78 16,-130 582,-130 582,-78 16,-78"/>
</g>
<!-- LayoutComponent -->
<g id="node1" class="node">
<title>LayoutComponent</title>
<polygon fill="#ffffb3" stroke="#000000" points="718.4902,-122 597.5098,-122 597.5098,-86 718.4902,-86 718.4902,-122"/>
<text text-anchor="middle" x="658" y="-99.8" font-family="Times,serif" font-size="14.00" fill="#000000">LayoutComponent</text>
</g>
<!-- AccountFeatureAuthModule -->
<g id="node2" class="node">
<title>AccountFeatureAuthModule</title>
<polygon fill="#8dd3c7" stroke="#000000" points="478.451,-187 475.451,-191 454.451,-191 451.451,-187 301.549,-187 301.549,-151 478.451,-151 478.451,-187"/>
<text text-anchor="middle" x="390" y="-164.8" font-family="Times,serif" font-size="14.00" fill="#000000">AccountFeatureAuthModule</text>
</g>
<!-- LayoutComponent&#45;&gt;AccountFeatureAuthModule -->
<g id="edge1" class="edge">
<title>LayoutComponent&#45;&gt;AccountFeatureAuthModule</title>
<path fill="none" stroke="#000000" d="M658,-122.1061C658,-141.3391 658,-169 658,-169 658,-169 488.496,-169 488.496,-169"/>
<polygon fill="#000000" stroke="#000000" points="488.496,-165.5001 478.496,-169 488.4959,-172.5001 488.496,-165.5001"/>
</g>
<!-- AccountSharedAuthModule -->
<g id="node3" class="node">
<title>AccountSharedAuthModule</title>
<polygon fill="#8dd3c7" stroke="#000000" points="573.8459,-122 570.8459,-126 549.8459,-126 546.8459,-122 400.1541,-122 400.1541,-86 573.8459,-86 573.8459,-122"/>
<text text-anchor="middle" x="487" y="-99.8" font-family="Times,serif" font-size="14.00" fill="#000000">AccountSharedAuthModule</text>
</g>
<!-- AccountSharedAuthModule&#45;&gt;AccountFeatureAuthModule -->
<g id="edge2" class="edge">
<title>AccountSharedAuthModule&#45;&gt;AccountFeatureAuthModule</title>
<path fill="none" stroke="#000000" d="M439.2763,-122.1061C439.2763,-122.1061 439.2763,-140.991 439.2763,-140.991"/>
<polygon fill="#000000" stroke="#000000" points="435.7764,-140.9909 439.2763,-150.991 442.7764,-140.991 435.7764,-140.9909"/>
</g>
<!-- UiKitFloatingDialogModule -->
<g id="node4" class="node">
<title>UiKitFloatingDialogModule</title>
<polygon fill="#8dd3c7" stroke="#000000" points="382.2063,-122 379.2063,-126 358.2063,-126 355.2063,-122 205.7937,-122 205.7937,-86 382.2063,-86 382.2063,-122"/>
<text text-anchor="middle" x="294" y="-99.8" font-family="Times,serif" font-size="14.00" fill="#000000">UiKitFloatingDialogModule</text>
</g>
<!-- UiKitFloatingDialogModule&#45;&gt;AccountFeatureAuthModule -->
<g id="edge3" class="edge">
<title>UiKitFloatingDialogModule&#45;&gt;AccountFeatureAuthModule</title>
<path fill="none" stroke="#000000" d="M341.8138,-122.1061C341.8138,-122.1061 341.8138,-140.991 341.8138,-140.991"/>
<polygon fill="#000000" stroke="#000000" points="338.3139,-140.9909 341.8138,-150.991 345.3139,-140.991 338.3139,-140.9909"/>
</g>
<!-- UiKitFormBuilderModule -->
<g id="node5" class="node">
<title>UiKitFormBuilderModule</title>
<polygon fill="#8dd3c7" stroke="#000000" points="187.7618,-122 184.7618,-126 163.7618,-126 160.7618,-122 24.2382,-122 24.2382,-86 187.7618,-86 187.7618,-122"/>
<text text-anchor="middle" x="106" y="-99.8" font-family="Times,serif" font-size="14.00" fill="#000000">UiKitFormBuilderModule</text>
</g>
<!-- UiKitFormBuilderModule&#45;&gt;AccountFeatureAuthModule -->
<g id="edge4" class="edge">
<title>UiKitFormBuilderModule&#45;&gt;AccountFeatureAuthModule</title>
<path fill="none" stroke="#000000" d="M106,-122.1061C106,-141.3391 106,-169 106,-169 106,-169 291.3088,-169 291.3088,-169"/>
<polygon fill="#000000" stroke="#000000" points="291.3089,-172.5001 301.3088,-169 291.3088,-165.5001 291.3089,-172.5001"/>
</g>
</g>
</svg>
